<?xml version="1.0" standalone="no"?>
<!DOCTYPE svg PUBLIC "-//W3C//DTD SVG 1.1//EN" "http://www.w3.org/Graphics/SVG/1.1/DTD/svg11.dtd" >
<svg xmlns="http://www.w3.org/2000/svg" xmlns:xlink="http://www.w3.org/1999/xlink" version="1.1">
<metadata>
Created by FontForge 20170731 at Wed Aug 20 22:56:25 2014
 By Aleksey,,,
No Rights Reserved.
</metadata>
<defs>
<font id="Aileron-Regular" horiz-adv-x="580" >
  <font-face 
    font-family="Aileron"
    font-weight="400"
    font-stretch="normal"
    units-per-em="1000"
    panose-1="0 0 5 0 0 0 0 0 0 0"
    ascent="770"
    descent="-230"
    x-height="526"
    cap-height="690"
    bbox="-150 -223 1062 895"
    underline-thickness="50"
    underline-position="-200"
    unicode-range="U+0020-FB02"
  />
<missing-glyph horiz-adv-x="500" 
d="M0 0v700h500v-700h-500zM250 395l170 255h-340zM280 350l170 -255v510zM80 50h340l-170 255zM50 605v-510l170 255z" />
    <glyph glyph-name="fi" unicode="fi" horiz-adv-x="522" 
d="M444 526v-526h-86v460h-194v-460h-86v460h-57v66h57v14q0 37 3 64q17 150 216 150q31 0 61 -5v-71q-98 8 -141 -10t-50 -66q-3 -21 -3 -54v-22h280z" />
    <glyph glyph-name="fl" unicode="fl" horiz-adv-x="509" 
d="M419 102q2 -26 16 -34.5t49 -4.5v-63q-25 -4 -61 -4q-42 0 -65 18t-25 65q-1 18 -1 70v533q-30 6 -69 6q-94 0 -106 -86q-3 -21 -3 -54v-22h109v-66h-109v-460h-86v460h-47v66h47v14q0 37 3 64q17 150 196 150q93 0 151 -19v-583q0 -33 1 -50z" />
    <glyph glyph-name=".notdef" horiz-adv-x="500" 
d="M0 0v700h500v-700h-500zM250 395l170 255h-340zM280 350l170 -255v510zM80 50h340l-170 255zM50 605v-510l170 255z" />
    <glyph glyph-name=".null" horiz-adv-x="0" 
 />
    <glyph glyph-name="nonmarkingreturn" horiz-adv-x="333" 
 />
    <glyph glyph-name="space" unicode=" " horiz-adv-x="216" 
 />
    <glyph glyph-name="exclam" unicode="!" horiz-adv-x="242" 
d="M160 180h-78l-12 510h102zM121 114q28 0 46 -18t18 -46t-18 -46t-46 -18t-46 18t-18 46t18 46t46 18z" />
    <glyph glyph-name="quotedbl" unicode="&#x22;" horiz-adv-x="339" 
d="M166 485h-70l-10 250h90zM306 485h-70l-10 250h90z" />
    <glyph glyph-name="numbersign" unicode="#" 
d="M408 415l-29 -140h101v-56h-113l-47 -219h-58l47 219h-91l-47 -219h-58l47 219h-90v56h102l29 140h-101v56h113l47 219h58l-47 -219h91l47 219h58l-47 -219h90v-56h-102zM351 415h-91l-30 -140h91z" />
    <glyph glyph-name="dollar" unicode="$" 
d="M526 181q0 -81 -56.5 -132.5t-144.5 -60.5v-78h-58v77q-96 6 -153 59t-61 140h92q7 -54 38 -88t84 -42v256q-94 26 -141.5 71.5t-47.5 127.5t52 132t137 59v78h58v-77q85 -7 134.5 -60.5t59.5 -133.5h-92q-11 111 -102 125v-238q109 -35 155 -85.5t46 -129.5zM170 524
q0 -49 22.5 -76t74.5 -43v229q-46 -8 -71.5 -36t-25.5 -74zM325 301v-246q51 6 80 35t29 81q0 94 -109 130z" />
    <glyph glyph-name="percent" unicode="%" horiz-adv-x="740" 
d="M189 700q68 0 108 -43t40 -116t-40 -116t-108 -43t-108 43t-40 116t40 116t108 43zM190 0h-87l448 690h87zM189 640q-29 0 -46.5 -25.5t-17.5 -73.5q0 -47 17.5 -73t46.5 -26t46.5 26t17.5 73q0 48 -17.5 73.5t-46.5 25.5zM551 304q68 0 108 -43t40 -116t-40 -116
t-108 -43t-108 43t-40 116t40 116t108 43zM551 244q-29 0 -46.5 -25.5t-17.5 -73.5q0 -47 17.5 -73t46.5 -26t46.5 26t17.5 73q0 48 -17.5 73.5t-46.5 25.5z" />
    <glyph glyph-name="ampersand" unicode="&#x26;" horiz-adv-x="654" 
d="M622 385v-70h-96v-308q-92 -21 -189 -21q-131 0 -202 42t-71 145q0 64 43 114t115 65q-59 14 -94.5 54.5t-35.5 99.5q0 88 68 143t176 55q66 0 120 -10v-69q-56 11 -123 11q-68 0 -106.5 -33.5t-38.5 -91.5q0 -66 34 -94t96 -31q18 -1 62 -1h60v112h86v-112h96zM160 186
q0 -71 42 -101.5t137 -30.5q57 0 101 9v252h-60q-41 0 -61 -2q-82 -7 -120.5 -41.5t-38.5 -85.5z" />
    <glyph glyph-name="quotesingle" unicode="'" horiz-adv-x="176" 
d="M123 485h-70l-10 250h90z" />
    <glyph glyph-name="parenleft" unicode="(" horiz-adv-x="315" 
d="M221 780h58q-117 -198 -117 -430t117 -430h-58q-57 85 -89 198.5t-32 231.5t32 231.5t89 198.5z" />
    <glyph glyph-name="parenright" unicode=")" horiz-adv-x="315" 
d="M30 780h58q57 -85 89 -198.5t32 -231.5t-32 -231.5t-89 -198.5h-58q117 198 117 430t-117 430z" />
    <glyph glyph-name="asterisk" unicode="*" horiz-adv-x="560" 
d="M301 296l155 61l19 -59l-159 -41l113 -138l-50 -37l-99 153l-99 -153l-50 37l113 138l-159 41l19 59l155 -61l-10 179h62z" />
    <glyph glyph-name="plus" unicode="+" 
d="M500 287h-181v-202h-58v202h-181v56h181v206h58v-206h181v-56z" />
    <glyph glyph-name="comma" unicode="," horiz-adv-x="220" 
d="M140 90l-90 -210h-81l78 220h93v-10z" />
    <glyph glyph-name="hyphen" unicode="-" horiz-adv-x="274" 
d="M242 255h-210v56h210v-56z" />
    <glyph glyph-name="period" unicode="." horiz-adv-x="220" 
d="M101 114q28 0 46 -18t18 -46t-18 -46t-46 -18t-46 18t-18 46t18 46t46 18z" />
    <glyph glyph-name="slash" unicode="/" horiz-adv-x="303" 
d="M57 -30h-62l251 750h62z" />
    <glyph glyph-name="zero" unicode="0" 
d="M290 704q249 0 249 -359t-249 -359t-249 359t249 359zM290 54q153 0 153 291t-153 291t-153 -291t153 -291z" />
    <glyph glyph-name="one" unicode="1" 
d="M406 690v-690h-86v599l-190 -113v91l146 91q35 22 75 22h55z" />
    <glyph glyph-name="two" unicode="2" 
d="M185 70h338v-70h-463v49l250 255q66 68 93 110.5t27 89.5q0 57 -32.5 94.5t-91.5 37.5q-126 0 -142 -152l-1 -10h-86l1 10q10 107 72 163.5t166 56.5q101 0 155.5 -54t54.5 -136q0 -67 -37 -123.5t-131 -149.5z" />
    <glyph glyph-name="three" unicode="3" 
d="M396 367q65 -18 101.5 -63.5t36.5 -111.5q0 -93 -73 -149.5t-177 -56.5q-217 0 -238 208l-1 10h86l1 -10q7 -70 50.5 -105t109.5 -35q65 0 105.5 35.5t40.5 97.5q0 127 -164 127h-17v70h17q64 0 106 36t42 99q0 52 -33.5 84.5t-88.5 32.5q-57 0 -95.5 -34.5t-45.5 -100.5
l-1 -10h-86l1 10q10 95 72 149t166 54q95 0 151 -48t56 -127q0 -58 -33.5 -102t-88.5 -60z" />
    <glyph glyph-name="four" unicode="4" 
d="M548 174h-87v-174h-86v174h-342v43l342 473h86v-446h87v-70zM375 244v331q-29 -50 -57 -88l-176 -243h233z" />
    <glyph glyph-name="five" unicode="5" 
d="M307 455q111 0 170.5 -64t59.5 -167q0 -109 -72.5 -173.5t-173.5 -64.5q-213 0 -233 197l-1 10h86l2 -10q26 -129 145 -129q69 0 110 43.5t41 120.5q0 78 -39 123.5t-108 45.5q-97 0 -144 -98h-82l48 401h392v-70h-322l-31 -240l43 46q48 29 109 29z" />
    <glyph glyph-name="six" unicode="6" 
d="M302 466q106 0 167.5 -64.5t61.5 -169.5q0 -109 -69 -177.5t-175 -68.5q-244 0 -244 326q0 197 75.5 294.5t191.5 97.5q89 0 147 -50.5t66 -135.5l1 -10h-92l-2 10q-24 118 -127 118q-156 0 -166 -276l39 62q53 44 126 44zM287 54q65 0 106.5 46.5t41.5 121.5
q0 78 -36.5 127t-111.5 49q-62 0 -103 -45.5t-41 -128.5q0 -73 40 -121.5t104 -48.5z" />
    <glyph glyph-name="seven" unicode="7" 
d="M538 690v-40l-344 -650h-92l331 620h-383v70h488z" />
    <glyph glyph-name="eight" unicode="8" 
d="M404 365q57 -19 94.5 -65.5t37.5 -106.5q0 -105 -72 -156.5t-174 -51.5q-108 0 -177 51t-69 157q0 60 39.5 106.5t97.5 64.5q-48 19 -77.5 59t-29.5 95q0 85 60.5 135.5t161.5 50.5t161.5 -50.5t60.5 -135.5q0 -55 -31.5 -95t-82.5 -58zM296 636q-62 0 -95.5 -34.5
t-33.5 -86.5q0 -55 33 -89t95 -34t96 34t34 89q0 52 -33.5 86.5t-95.5 34.5zM292 53q73 0 110.5 37t37.5 99q0 58 -37 96.5t-112 38.5q-76 0 -113.5 -38.5t-37.5 -96.5q0 -61 39 -98.5t113 -37.5z" />
    <glyph glyph-name="nine" unicode="9" 
d="M293 704q244 0 244 -326q0 -197 -75.5 -294.5t-191.5 -97.5q-89 0 -147 50.5t-66 135.5l-1 10h92l2 -10q24 -118 127 -118q156 0 166 276l-39 -62q-53 -44 -126 -44q-106 0 -167.5 64.5t-61.5 169.5q0 109 69 177.5t175 68.5zM293 292q62 0 103 45.5t41 128.5
q0 73 -40 121.5t-104 48.5q-65 0 -106.5 -46.5t-41.5 -121.5q0 -78 36.5 -127t111.5 -49z" />
    <glyph glyph-name="colon" unicode=":" horiz-adv-x="220" 
d="M101 544q28 0 46 -18t18 -46t-18 -46t-46 -18t-46 18t-18 46t18 46t46 18zM101 114q28 0 46 -18t18 -46t-18 -46t-46 -18t-46 18t-18 46t18 46t46 18z" />
    <glyph glyph-name="semicolon" unicode=";" horiz-adv-x="220" 
d="M101 544q28 0 46 -18t18 -46t-18 -46t-46 -18t-46 18t-18 46t18 46t46 18zM141 98l-90 -218h-82l78 230h94v-12z" />
    <glyph glyph-name="less" unicode="&#x3c;" 
d="M504 432l-342 -166l342 -166v-70l-401 201v68l401 201v-68z" />
    <glyph glyph-name="equal" unicode="=" 
d="M500 387h-420v56h420v-56zM500 187h-420v56h420v-56z" />
    <glyph glyph-name="greater" unicode="&#x3e;" 
d="M469 299v-68l-401 -201v68l342 166l-342 166v70z" />
    <glyph glyph-name="question" unicode="?" horiz-adv-x="499" 
d="M260 704q98 0 153 -51.5t55 -131.5q0 -99 -105 -204q-45 -45 -61 -72.5t-18 -64.5h-86q5 45 21.5 78.5t58.5 81.5q54 62 74 99.5t20 81.5q0 52 -31 83.5t-84 31.5q-57 0 -92.5 -36.5t-39.5 -105.5h-90q3 96 64.5 153t160.5 57zM241 114q28 0 46 -18t18 -46t-18 -46
t-46 -18t-46 18t-18 46t18 46t46 18z" />
    <glyph glyph-name="at" unicode="@" horiz-adv-x="852" 
d="M634 465l-63 -264q-4 -17 -4 -32q0 -36 38 -36q50 0 86.5 51t36.5 145q0 132 -75 204.5t-187 72.5q-64 0 -126 -24.5t-112 -69t-81 -115t-31 -153.5q0 -139 80 -214.5t203 -75.5q64 0 131 20.5t120 59.5l24 -49q-131 -89 -278 -89q-143 0 -242.5 90.5t-99.5 256.5
q0 96 36 177t95 133.5t132.5 81.5t151.5 29q142 0 231.5 -92t89.5 -241q0 -126 -62 -191t-143 -65q-89 0 -100 72l-21 -41q-46 -39 -100 -39q-57 0 -99 38.5t-42 122.5q0 102 61.5 178.5t154.5 76.5q60 0 88 -31l9 -48l17 61h81zM498 251l9 39q15 67 -3.5 97t-58.5 30
q-58 0 -93 -55t-35 -128q0 -101 68 -101q39 0 70.5 35t42.5 83z" />
    <glyph glyph-name="A" unicode="A" horiz-adv-x="639" 
d="M456 244h-254l-81 -244h-92l248 690h116l238 -690h-93zM226 314h207l-100 308z" />
    <glyph glyph-name="B" unicode="B" horiz-adv-x="627" 
d="M446 367q71 -16 106.5 -55.5t35.5 -108.5q0 -88 -51 -137t-127 -61q-34 -5 -88 -5h-222v690h203q57 0 90 -4q170 -23 170 -168q0 -111 -117 -151zM186 620v-227h133q28 0 55 4q97 15 97 114q0 95 -106 107q-18 2 -55 2h-124zM383 72q51 5 82 36t31 86q0 110 -112 125
q-31 4 -55 4h-143v-253h149q22 0 48 2z" />
    <glyph glyph-name="C" unicode="C" horiz-adv-x="699" 
d="M373 704q127 0 198.5 -64t82.5 -170l1 -10h-86l-2 10q-34 166 -196 166q-104 0 -166 -81.5t-62 -208.5q0 -129 60.5 -210.5t161.5 -81.5q162 0 196 166l2 10h86l-1 -10q-10 -101 -84.5 -167.5t-203.5 -66.5q-147 0 -230 100t-83 256q0 159 90 260.5t236 101.5z" />
    <glyph glyph-name="D" unicode="D" horiz-adv-x="709" 
d="M398 686q125 -16 199 -100t74 -233q0 -148 -77 -241t-201 -108q-35 -4 -88 -4h-205v690h210q53 0 88 -4zM384 75q90 15 141.5 86.5t51.5 191.5q0 113 -49.5 180.5t-138.5 81.5q-27 5 -84 5h-119v-550h114q56 0 84 5z" />
    <glyph glyph-name="E" unicode="E" horiz-adv-x="587" 
d="M559 70v-70h-459v690h449v-70h-363v-240h333v-70h-333v-240h373z" />
    <glyph glyph-name="F" unicode="F" horiz-adv-x="567" 
d="M186 620v-240h323v-70h-323v-310h-86v690h449v-70h-363z" />
    <glyph glyph-name="G" unicode="G" horiz-adv-x="710" 
d="M399 333h247v-333h-76v120l-31 -64q-62 -70 -179 -70q-147 0 -230 100t-83 256q0 159 90 260.5t236 101.5q127 0 198.5 -64t82.5 -170l1 -10h-86l-2 10q-34 166 -196 166q-104 0 -166 -81.5t-62 -208.5q0 -129 60.5 -210.5t161.5 -81.5q84 0 139.5 58.5t55.5 150.5h-161
v70z" />
    <glyph glyph-name="H" unicode="H" horiz-adv-x="730" 
d="M652 690v-690h-86v302h-380v-302h-86v690h86v-316h380v316h86z" />
    <glyph glyph-name="I" unicode="I" horiz-adv-x="264" 
d="M186 0h-86v690h86v-690z" />
    <glyph glyph-name="J" unicode="J" horiz-adv-x="544" 
d="M488 690v-426q0 -49 -2 -83q-5 -91 -61 -143t-162 -52q-96 0 -150.5 55.5t-56.5 152.5l-1 41h86l2 -41q7 -140 132 -140q116 0 126 132q1 20 1 81v423h86z" />
    <glyph glyph-name="K" unicode="K" horiz-adv-x="609" 
d="M315 353l295 -353h-121l-237 295l-66 -71v-224h-86v690h86v-367l341 367h101z" />
    <glyph glyph-name="L" unicode="L" horiz-adv-x="575" 
d="M559 70v-70h-459v690h86v-620h373z" />
    <glyph glyph-name="M" unicode="M" horiz-adv-x="866" 
d="M788 690v-690h-86v355q0 182 2 257q-35 -114 -84 -256l-122 -356h-108l-124 358q-55 160 -82 252q2 -75 2 -255v-355h-86v690h142l204 -617l203 617h139z" />
    <glyph glyph-name="N" unicode="N" horiz-adv-x="718" 
d="M640 0h-132l-325 606q3 -122 3 -261v-345h-86v690h132l325 -606q-3 121 -3 261v345h84z" />
    <glyph glyph-name="O" unicode="O" horiz-adv-x="737" 
d="M373 704q154 0 240 -98.5t86 -260.5q0 -161 -86 -260t-240 -99t-240 99t-86 260q0 162 86 260.5t240 98.5zM373 54q108 0 169 78t61 213q0 136 -61 213.5t-169 77.5t-169 -77.5t-61 -213.5q0 -135 61 -213t169 -78z" />
    <glyph glyph-name="P" unicode="P" horiz-adv-x="598" 
d="M404 686q84 -11 131.5 -62.5t47.5 -137.5q0 -85 -50.5 -137.5t-128.5 -62.5q-31 -4 -90 -4h-128v-282h-86v690h214q59 0 90 -4zM399 359q92 21 92 127t-92 127q-24 5 -77 5h-136v-264h136q53 0 77 5z" />
    <glyph glyph-name="Q" unicode="Q" horiz-adv-x="733" 
d="M573 72q61 -9 128 -65l-49 -59q-80 54 -135 54q-31 0 -73 -9q-31 -7 -71 -7q-154 0 -240 99t-86 260q0 162 86 260.5t240 98.5t240 -98.5t86 -260.5q0 -181 -126 -273zM143 345q0 -135 61 -213t169 -78t169 78t61 213q0 136 -61 213.5t-169 77.5t-169 -77.5t-61 -213.5z
" />
    <glyph glyph-name="R" unicode="R" horiz-adv-x="619" 
d="M554 181q12 -136 46 -181h-95q-25 57 -37 173q-13 116 -103 123q-16 1 -49 1h-130v-297h-86v690h226q59 0 90 -4q80 -10 126 -55.5t46 -128.5q0 -64 -35 -105t-88 -58q78 -36 89 -158zM186 367h132q48 0 67 2q50 5 80.5 37t30.5 88q0 106 -101 122q-25 4 -69 4h-140v-253
z" />
    <glyph glyph-name="S" unicode="S" horiz-adv-x="585" 
d="M314 704q103 0 162 -56t69 -149h-92q-6 66 -43.5 101.5t-102.5 35.5q-58 0 -94.5 -27t-36.5 -79q0 -55 33.5 -84t114.5 -47q117 -27 172.5 -77.5t55.5 -136.5q0 -89 -67.5 -144t-169.5 -55q-114 0 -183 55t-80 155h92q15 -68 60 -105t113 -37q61 0 102 31t41 84
q0 62 -38.5 95.5t-130.5 54.5q-100 23 -153.5 67t-53.5 124q0 87 66 140.5t164 53.5z" />
    <glyph glyph-name="T" unicode="T" horiz-adv-x="612" 
d="M612 620h-246v-620h-86v620h-246v70h578v-70z" />
    <glyph glyph-name="U" unicode="U" horiz-adv-x="682" 
d="M612 690v-435q0 -42 -2 -62q-8 -92 -72.5 -149.5t-184.5 -57.5t-184.5 57.5t-72.5 149.5q-2 20 -2 62v435h86v-427q0 -43 2 -61q6 -68 50 -108t121 -40t121 40t50 108q2 18 2 61v427h86z" />
    <glyph glyph-name="V" unicode="V" horiz-adv-x="622" 
d="M386 0h-116l-238 690h93l205 -625l212 625h92z" />
    <glyph glyph-name="W" unicode="W" horiz-adv-x="952" 
d="M945 690l-192 -690h-113l-156 595l-162 -595h-114l-182 690h98l145 -613l160 603h116l156 -604l153 614h91z" />
    <glyph glyph-name="X" unicode="X" horiz-adv-x="625" 
d="M522 0l-202 292l-196 -292h-99l246 348l-228 342h98l183 -282l190 282h99l-240 -339l250 -351h-101z" />
    <glyph glyph-name="Y" unicode="Y" horiz-adv-x="581" 
d="M349 272v-272h-86v272l-244 418h99l192 -335l186 335h97z" />
    <glyph glyph-name="Z" unicode="Z" horiz-adv-x="591" 
d="M569 70v-70h-523v66l417 554h-389v70h489v-69l-415 -551h421z" />
    <glyph glyph-name="bracketleft" unicode="[" horiz-adv-x="307" 
d="M261 780v-56h-105v-748h105v-56h-163v860h163z" />
    <glyph glyph-name="backslash" unicode="\" horiz-adv-x="303" 
d="M308 -30h-62l-251 750h62z" />
    <glyph glyph-name="bracketright" unicode="]" horiz-adv-x="295" 
d="M197 -80h-163v56h105v748h-105v56h163v-860z" />
    <glyph glyph-name="asciicircum" unicode="^" 
d="M432 215l-141 345l-141 -345h-70l176 401h68l176 -401h-68z" />
    <glyph glyph-name="underscore" unicode="_" horiz-adv-x="500" 
d="M450 -86h-400v56h400v-56z" />
    <glyph glyph-name="grave" unicode="`" horiz-adv-x="300" 
d="M182 580h-56l-85 110h80z" />
    <glyph glyph-name="a" unicode="a" horiz-adv-x="531" 
d="M378 0l-9 76l-29 -57q-48 -33 -133 -33q-75 0 -123 40t-48 111q0 91 72 136.5t226 45.5h34v14q0 44 -2 64q-7 81 -103 81q-105 0 -114 -112h-90q6 84 60.5 131t143.5 47q174 0 188 -140q3 -31 3 -70v-199q0 -61 10 -135h-86zM236 52q61 0 96.5 39t35.5 110v54
q-238 18 -238 -111q0 -92 106 -92z" />
    <glyph glyph-name="b" unicode="b" horiz-adv-x="611" 
d="M340 544q113 0 177 -75.5t64 -195.5q0 -139 -74.5 -213t-184.5 -74q-35 0 -71.5 9.5t-55.5 25.5l-35 52v-73h-86v735h86v-290l40 57q50 42 140 42zM322 52q73 0 119 55t46 156q0 94 -41.5 154.5t-118.5 60.5q-73 0 -120 -50.5t-47 -157.5v-29q0 -95 48.5 -142t113.5 -47z
" />
    <glyph glyph-name="c" unicode="c" horiz-adv-x="529" 
d="M279 544q94 0 153 -52t71 -140h-90q-28 126 -136 126q-66 0 -109.5 -53t-43.5 -155q0 -109 41.5 -163.5t105.5 -54.5q53 0 88.5 30t48.5 87h90q-19 -90 -80 -136.5t-152 -46.5q-106 0 -171 69.5t-65 208.5q0 129 72 204.5t177 75.5z" />
    <glyph glyph-name="d" unicode="d" horiz-adv-x="615" 
d="M537 735v-735h-86v85l-40 -57q-50 -42 -140 -42q-113 0 -177 75.5t-64 195.5q0 139 74.5 213t184.5 74q35 0 71.5 -9.5t55.5 -25.5l35 -52v278h86zM284 52q73 0 120 50.5t47 157.5v29q0 95 -48.5 142t-113.5 47q-73 0 -119 -55t-46 -156q0 -94 41.5 -154.5t118.5 -60.5z
" />
    <glyph glyph-name="e" unicode="e" horiz-adv-x="549" 
d="M509 280q0 -22 -2 -41h-384q6 -99 47 -143t105 -44q53 0 90.5 31.5t46.5 87.5h90q-15 -91 -79.5 -138t-151.5 -47q-108 0 -174.5 71t-66.5 206q0 127 71 204t181 77q107 0 167 -72.5t60 -191.5zM280 478q-64 0 -106.5 -45t-49.5 -128h298q-13 173 -142 173z" />
    <glyph glyph-name="f" unicode="f" horiz-adv-x="290" 
d="M167 632q-3 -21 -3 -54v-52h109v-66h-109v-460h-86v460h-57v66h57v44q0 37 3 64q7 57 43.5 88.5t96.5 31.5q31 0 61 -5v-71q-104 19 -115 -46z" />
    <glyph glyph-name="g" unicode="g" horiz-adv-x="615" 
d="M537 530v-400q0 -74 -1 -103q-4 -115 -70 -176t-182 -61q-220 0 -237 175l-1 10h87l1 -9q5 -50 44 -80t106 -30q78 0 120.5 42.5t45.5 119.5q1 25 1 58v9l-40 -57q-50 -42 -140 -42q-113 0 -177 75.5t-64 195.5q0 139 74.5 213t184.5 74q35 0 71.5 -9.5t55.5 -25.5
l35 -52v73h86zM284 52q73 0 120 50.5t47 157.5v29q0 95 -48.5 142t-113.5 47q-73 0 -119 -55t-46 -156q0 -94 41.5 -154.5t118.5 -60.5z" />
    <glyph glyph-name="h" unicode="h" horiz-adv-x="593" 
d="M520 389q2 -27 2 -91v-298h-86v292q0 49 -2 76q-4 50 -33.5 79.5t-87.5 28.5q-69 -2 -111 -59t-42 -184v-233h-86v740h86v-301l33 61q57 44 138 44q85 0 134 -42t55 -113z" />
    <glyph glyph-name="i" unicode="i" horiz-adv-x="238" 
d="M117 704q23 0 39 -16t16 -39t-16 -39t-39 -16t-39 16t-16 39t16 39t39 16zM160 0h-86v530h86v-530z" />
    <glyph glyph-name="j" unicode="j" horiz-adv-x="233" 
d="M112 704q23 0 39 -16t16 -39t-16 -39t-39 -16t-39 16t-16 39t16 39t39 16zM155 530v-576q0 -37 -3 -64q-11 -100 -124 -100q-28 0 -41 2v70q74 -7 80 44q2 14 2 44v580h86z" />
    <glyph glyph-name="k" unicode="k" horiz-adv-x="522" 
d="M403 0l-193 224l-50 -55v-169h-86v735h86v-472l247 267h110l-247 -250l250 -280h-117z" />
    <glyph glyph-name="l" unicode="l" horiz-adv-x="247" 
d="M156 735v-583q0 -33 1 -50q2 -26 16 -35t49 -5v-62q-25 -4 -61 -4q-42 0 -65 18t-25 65q-1 18 -1 70v586h86z" />
    <glyph glyph-name="m" unicode="m" horiz-adv-x="855" 
d="M779 415q5 -34 5 -91v-324h-86v284q0 67 -4 103q-12 89 -106 89q-116 0 -116 -214v-262h-86v284q0 67 -4 103q-12 89 -106 89q-116 0 -116 -214v-262h-86v530h86v-77l34 60q38 31 112 31q59 0 98 -27t55 -72l47 68q38 31 112 31q68 0 110 -35.5t51 -93.5z" />
    <glyph glyph-name="n" unicode="n" horiz-adv-x="593" 
d="M520 389q2 -27 2 -91v-298h-86v292q0 49 -2 76q-9 108 -121 108q-68 0 -110.5 -58t-42.5 -185v-233h-86v530h86v-91l33 61q57 44 138 44q85 0 134 -42t55 -113z" />
    <glyph glyph-name="o" unicode="o" horiz-adv-x="586" 
d="M293 544q128 0 195.5 -79.5t67.5 -199.5t-67.5 -199.5t-195.5 -79.5t-195.5 79.5t-67.5 199.5t67.5 199.5t195.5 79.5zM293 52q79 0 124 59t45 154q0 96 -45 154.5t-124 58.5t-124 -58.5t-45 -154.5q0 -95 45 -154t124 -59z" />
    <glyph glyph-name="p" unicode="p" horiz-adv-x="611" 
d="M340 544q113 0 177 -75.5t64 -195.5q0 -139 -74.5 -213t-184.5 -74q-35 0 -71.5 9.5t-55.5 25.5l-35 52v-269h-86v726h86v-85l40 57q50 42 140 42zM322 52q73 0 119 55t46 156q0 94 -41.5 154.5t-118.5 60.5q-73 0 -120 -50.5t-47 -157.5v-29q0 -95 48.5 -142t113.5 -47z
" />
    <glyph glyph-name="q" unicode="q" horiz-adv-x="615" 
d="M537 530v-726h-86v281l-40 -57q-50 -42 -140 -42q-113 0 -177 75.5t-64 195.5q0 139 74.5 213t184.5 74q35 0 71.5 -9.5t55.5 -25.5l35 -52v73h86zM284 52q73 0 120 50.5t47 157.5v29q0 95 -48.5 142t-113.5 47q-73 0 -119 -55t-46 -156q0 -94 41.5 -154.5t118.5 -60.5z
" />
    <glyph glyph-name="r" unicode="r" horiz-adv-x="330" 
d="M282 542q22 0 36 -7v-65q-71 5 -114.5 -38t-43.5 -130v-302h-86v530h86v-83l48 71q35 24 74 24z" />
    <glyph glyph-name="s" unicode="s" horiz-adv-x="459" 
d="M228 544q87 0 136.5 -45t58.5 -120h-90q-19 99 -112 99q-43 0 -65.5 -21.5t-22.5 -57.5q0 -37 28 -57t88 -36q93 -25 136.5 -64.5t43.5 -105.5q0 -72 -54.5 -111t-142.5 -39q-86 0 -141 42t-67 128h90q19 -104 124 -104q45 0 74 20t29 57q0 38 -28.5 61t-96.5 41
q-82 22 -126.5 58t-44.5 100q0 72 50 113.5t133 41.5z" />
    <glyph glyph-name="t" unicode="t" horiz-adv-x="313" 
d="M177 460v-305q0 -27 1 -41q3 -38 22 -49t70 -5v-63q-31 -5 -73 -5q-50 0 -75.5 22t-29.5 71q-1 14 -1 66v309h-71v66h71v123h86v-123h99v-66h-99z" />
    <glyph glyph-name="u" unicode="u" horiz-adv-x="592" 
d="M514 530v-530h-86v90l-33 -62q-57 -42 -138 -42q-79 0 -127.5 38.5t-58.5 96.5q-5 34 -5 91v318h86v-302q0 -37 4 -73q6 -46 38 -73.5t85 -27.5q68 0 108.5 57.5t40.5 185.5v233h86z" />
    <glyph glyph-name="v" unicode="v" horiz-adv-x="514" 
d="M508 530l-201 -530h-105l-201 530h95l162 -467l159 467h91z" />
    <glyph glyph-name="w" unicode="w" horiz-adv-x="785" 
d="M779 530l-169 -530h-102l-118 446l-118 -446h-102l-169 530h99l123 -448l116 448h107l118 -445l123 445h92z" />
    <glyph glyph-name="x" unicode="x" horiz-adv-x="482" 
d="M282 270l188 -270h-100l-139 213l-138 -213h-99l190 268l-183 262h102l133 -205l133 205h99z" />
    <glyph glyph-name="y" unicode="y" horiz-adv-x="513" 
d="M507 530l-218 -575q-33 -85 -77.5 -125t-108.5 -40q-31 0 -44 2v70q13 -1 31 -1q41 0 68 21t47 72l7 19l-211 557h97l158 -466l157 466h94z" />
    <glyph glyph-name="z" unicode="z" horiz-adv-x="462" 
d="M433 68v-68h-413v66l308 392h-286v68h386v-69l-306 -389h311z" />
    <glyph glyph-name="braceleft" unicode="{" horiz-adv-x="303" 
d="M270 724h-12q-42 0 -59.5 -12t-17.5 -37q0 -22 11 -100q13 -91 13 -123q0 -43 -23 -69.5t-64 -31.5q41 -5 64 -32.5t23 -70.5q0 -32 -13 -123q-11 -78 -11 -100q0 -25 17.5 -37t59.5 -12h12v-56h-11q-68 0 -102 23.5t-34 82.5q0 24 12 109q11 76 11 110q0 69 -82 77v56
q82 8 82 77q0 34 -11 110q-12 85 -12 109q0 59 34 82.5t102 23.5h11v-56z" />
    <glyph glyph-name="bar" unicode="|" horiz-adv-x="250" 
d="M154 -200h-58v1000h58v-1000z" />
    <glyph glyph-name="braceright" unicode="}" horiz-adv-x="303" 
d="M239 378v-56q-82 -8 -82 -77q0 -34 11 -110q12 -85 12 -109q0 -59 -34 -82.5t-102 -23.5h-11v56h12q42 0 59.5 12t17.5 37q0 22 -11 100q-13 91 -13 123q0 43 23 69.5t64 31.5q-41 5 -64 32.5t-23 70.5q0 32 13 123q11 78 11 100q0 25 -17.5 37t-59.5 12h-12v56h11
q68 0 102 -23.5t34 -82.5q0 -24 -12 -109q-11 -76 -11 -110q0 -69 82 -77z" />
    <glyph glyph-name="asciitilde" unicode="~" 
d="M446 356h56q0 -133 -110 -133q-27 0 -49 8.5t-67 32.5q-65 35 -94 35q-49 0 -49 -76h-56q0 133 110 133q27 0 49 -8.5t67 -32.5q65 -35 94 -35q49 0 49 76z" />
    <glyph glyph-name="exclamdown" unicode="&#xa1;" horiz-adv-x="242" 
d="M121 416q-28 0 -46 18t-18 46t18 46t46 18t46 -18t18 -46t-18 -46t-46 -18zM82 350h78l12 -510h-102z" />
    <glyph glyph-name="cent" unicode="&#xa2;" horiz-adv-x="560" 
d="M319 476v-422q85 16 108 115h90q-17 -82 -68.5 -127.5t-129.5 -53.5v-78h-58v77q-97 8 -154.5 77t-57.5 200q0 116 60.5 189.5t151.5 87.5v79h58v-77q85 -5 138.5 -56.5t64.5 -134.5h-90q-25 112 -113 124zM143 270q0 -96 32.5 -150t85.5 -65v419q-53 -13 -85.5 -64.5
t-32.5 -139.5z" />
    <glyph glyph-name="sterling" unicode="&#xa3;" 
d="M518 70v-70h-450v62q109 27 109 138q0 57 -27 117h-73v56h46q-31 70 -31 125q0 91 61.5 148.5t152.5 57.5q97 0 150.5 -53.5t59.5 -142.5h-92q-9 65 -38.5 96.5t-81.5 31.5q-56 0 -86 -36t-30 -85q0 -38 7.5 -66t29.5 -76h216v-56h-193q20 -51 20 -102q0 -49 -18 -82
t-58 -63h326z" />
    <glyph glyph-name="currency" unicode="&#xa4;" 
d="M470 301q0 -58 -33 -105l60 -60l-41 -41l-60 60q-49 -34 -106 -34q-60 0 -105 34l-60 -59l-41 41l60 59q-34 45 -34 105q0 57 34 106l-60 60l41 41l60 -60q47 33 105 33q60 0 105 -34l61 61l41 -41l-61 -61q34 -45 34 -105zM290 179q51 0 84.5 34.5t33.5 87.5t-33.5 87.5
t-84.5 34.5t-84.5 -34.5t-33.5 -87.5t33.5 -87.5t84.5 -34.5z" />
    <glyph glyph-name="yen" unicode="&#xa5;" 
d="M373 357h122v-56h-153l-9 -16v-48h162v-56h-162v-181h-86v181h-162v56h162v48l-9 16h-153v56h122l-184 333h106l165 -331l162 331h101z" />
    <glyph glyph-name="brokenbar" unicode="&#xa6;" horiz-adv-x="250" 
d="M154 350h-58v340h58v-340zM154 -160h-58v340h58v-340z" />
    <glyph glyph-name="section" unicode="&#xa7;" horiz-adv-x="560" 
d="M531 246q0 -48 -27 -86t-72 -59q41 -46 41 -114q0 -77 -57.5 -119t-140.5 -42q-88 0 -144 43.5t-66 130.5h90q27 -108 126 -108q44 0 72 23t28 65q0 45 -33 75t-117 51q-90 22 -144 69.5t-54 118.5q0 111 104 150q-40 43 -40 102q0 73 50.5 115.5t129.5 42.5
q87 0 137 -44t58 -122h-90q-9 47 -36.5 73.5t-68.5 26.5q-39 0 -63.5 -22t-24.5 -61q0 -42 32.5 -70.5t102.5 -48.5q109 -30 158 -74.5t49 -115.5zM364 149q34 7 54.5 32t20.5 55q0 44 -34 71.5t-114 52.5q-48 15 -85 34q-37 -3 -59 -27t-22 -69q0 -40 37.5 -70.5
t101.5 -45.5q56 -13 100 -33z" />
    <glyph glyph-name="dieresis" unicode="&#xa8;" horiz-adv-x="300" 
d="M77 675q19 0 32.5 -13.5t13.5 -32.5t-13.5 -32.5t-32.5 -13.5t-32.5 13.5t-13.5 32.5t13.5 32.5t32.5 13.5zM223 675q19 0 32.5 -13.5t13.5 -32.5t-13.5 -32.5t-32.5 -13.5t-32.5 13.5t-13.5 32.5t13.5 32.5t32.5 13.5z" />
    <glyph glyph-name="copyright" unicode="&#xa9;" horiz-adv-x="838" 
d="M419 744q162 0 272.5 -112t110.5 -277t-110.5 -277t-272.5 -112t-272.5 112t-110.5 277t110.5 277t272.5 112zM419 686q-136 0 -228.5 -95.5t-92.5 -235.5q0 -141 92.5 -236t228.5 -95t228.5 95t92.5 236q0 140 -92.5 235.5t-228.5 95.5zM425 586q80 0 131.5 -44
t66.5 -117h-92q-18 93 -106 93q-58 0 -89 -43.5t-31 -118.5t32.5 -119.5t87.5 -44.5q42 0 70.5 26.5t34.5 66.5h92q-18 -75 -69 -118t-137 -43q-92 0 -149.5 63t-57.5 166q0 107 59 170t157 63z" />
    <glyph glyph-name="guillemotleft" unicode="&#xab;" horiz-adv-x="557" 
d="M330 414l-137 -166l137 -166h-73l-137 166l137 166h73zM500 414l-137 -166l137 -166h-73l-137 166l137 166h73z" />
    <glyph glyph-name="logicalnot" unicode="&#xac;" 
d="M469 210h-58v118h-311v56h369v-174z" />
    <glyph glyph-name="registered" unicode="&#xae;" horiz-adv-x="508" 
d="M254 764q92 0 151 -59t59 -151t-59 -151t-151 -59t-151 59t-59 151t59 151t151 59zM254 390q71 0 116.5 46t45.5 118t-45.5 118t-116.5 46t-116.5 -46t-45.5 -118t45.5 -118t116.5 -46zM300 553q28 -5 32 -44q4 -34 13 -54h-57q-4 16 -7 45q-3 23 -29 23h-23v-68h-50v204
h70q18 0 27 -1q67 -7 67 -55q0 -36 -43 -50zM268 566q20 4 20 26q0 20 -20 25q-6 1 -19 1h-20v-53h20q13 0 19 1z" />
    <glyph glyph-name="macron" unicode="&#xaf;" horiz-adv-x="300" 
d="M270 604h-240v52h240v-52z" />
    <glyph glyph-name="degree" unicode="&#xb0;" horiz-adv-x="298" 
d="M149 704q53 0 87 -33t34 -86t-34 -86t-87 -33t-87 33t-34 86t34 86t87 33zM149 648q-26 0 -42.5 -17.5t-16.5 -45.5t16.5 -45.5t42.5 -17.5t42.5 17.5t16.5 45.5t-16.5 45.5t-42.5 17.5z" />
    <glyph glyph-name="plusminus" unicode="&#xb1;" 
d="M319 347h181v-56h-181v-180h-58v180h-181v56h181v176h58v-176zM500 0h-420v56h420v-56z" />
    <glyph glyph-name="acute" unicode="&#xb4;" horiz-adv-x="300" 
d="M172 580h-56l61 110h80z" />
    <glyph glyph-name="paragraph" unicode="&#xb6;" horiz-adv-x="566" 
d="M488 690v-800h-58v744h-92v-744h-58v430h-23q-39 0 -56 1q-74 4 -115.5 56.5t-41.5 127.5t41.5 127.5t115.5 56.5q17 1 56 1h231z" />
    <glyph glyph-name="periodcentered" unicode="&#xb7;" horiz-adv-x="202" 
d="M101 374q29 0 49 -20t20 -49t-20 -49t-49 -20t-49 20t-20 49t20 49t49 20z" />
    <glyph glyph-name="cedilla" unicode="&#xb8;" horiz-adv-x="300" 
d="M185 9l-27 -49q81 -11 81 -83q0 -41 -33.5 -64t-89.5 -23q-29 0 -50 9v44q21 -11 53 -11q62 0 62 44q0 53 -96 46l47 87h53z" />
    <glyph glyph-name="guillemotright" unicode="&#xbb;" horiz-adv-x="557" 
d="M267 248l-137 -166h-73l137 166l-137 166h73zM437 248l-137 -166h-73l137 166l-137 166h73z" />
    <glyph glyph-name="questiondown" unicode="&#xbf;" horiz-adv-x="491" 
d="M293 416q-28 0 -46 18t-18 46t18 46t46 18t46 -18t18 -46t-18 -46t-46 -18zM274 -174q-98 0 -153 51.5t-55 131.5q0 99 105 204q45 45 61 72.5t18 64.5h86q-5 -45 -21.5 -78.5t-58.5 -81.5q-54 -62 -74 -99.5t-20 -81.5q0 -52 31 -83.5t84 -31.5q57 0 92.5 36.5
t39.5 105.5h90q-3 -96 -64.5 -153t-160.5 -57z" />
    <glyph glyph-name="Agrave" unicode="&#xc0;" horiz-adv-x="639" 
d="M311 736l-78 94h80l54 -94h-56zM456 244h-254l-81 -244h-92l248 690h116l238 -690h-93zM226 314h207l-100 308z" />
    <glyph glyph-name="Aacute" unicode="&#xc1;" horiz-adv-x="639" 
d="M358 736h-56l54 94h80zM456 244h-254l-81 -244h-92l248 690h116l238 -690h-93zM226 314h207l-100 308z" />
    <glyph glyph-name="Acircumflex" unicode="&#xc2;" horiz-adv-x="639" 
d="M305 736h-66l67 94h59l67 -94h-67l-30 55zM456 244h-254l-81 -244h-92l248 690h116l238 -690h-93zM226 314h207l-100 308z" />
    <glyph glyph-name="Atilde" unicode="&#xc3;" horiz-adv-x="639" 
d="M283 770q-16 0 -16 -20h-38q0 40 13 55.5t39 15.5q23 0 62 -13q33 -11 44 -11q16 0 16 20h38q0 -40 -13 -55.5t-39 -15.5q-23 0 -62 13q-33 11 -44 11zM456 244h-254l-81 -244h-92l248 690h116l238 -690h-93zM226 314h207l-100 308z" />
    <glyph glyph-name="Adieresis" unicode="&#xc4;" horiz-adv-x="639" 
d="M265 737q-19 0 -32.5 13.5t-13.5 32.5t13.5 32.5t32.5 13.5t32.5 -13.5t13.5 -32.5t-13.5 -32.5t-32.5 -13.5zM405 737q-19 0 -32.5 13.5t-13.5 32.5t13.5 32.5t32.5 13.5t32.5 -13.5t13.5 -32.5t-13.5 -32.5t-32.5 -13.5zM456 244h-254l-81 -244h-92l248 690h116
l238 -690h-93zM226 314h207l-100 308z" />
    <glyph glyph-name="Aring" unicode="&#xc5;" horiz-adv-x="639" 
d="M335 716q-40 0 -65.5 22t-25.5 57t25.5 57t65.5 22t65.5 -22t25.5 -57t-25.5 -57t-65.5 -22zM335 838q-18 0 -29.5 -12t-11.5 -31t11.5 -31t29.5 -12t29.5 12t11.5 31t-11.5 31t-29.5 12zM456 244h-254l-81 -244h-92l248 690h116l238 -690h-93zM226 314h207l-100 308z
" />
    <glyph glyph-name="AE" unicode="&#xc6;" horiz-adv-x="908" 
d="M880 70v-70h-435l-14 244h-235l-138 -244h-93l398 690h507v-70h-375l14 -240h331v-70h-327l14 -240h353zM426 314l-17 307l-174 -307h191z" />
    <glyph glyph-name="Ccedilla" unicode="&#xc7;" horiz-adv-x="699" 
d="M563 230h86l-1 -10q-10 -99 -82 -165.5t-198 -68.5l-14 -26q81 -11 81 -83q0 -41 -33.5 -64t-89.5 -23q-29 0 -50 9v44q21 -11 53 -11q62 0 62 44q0 53 -96 46l36 66q-128 15 -199 112.5t-71 241.5q0 159 90 260.5t236 101.5q127 0 198.5 -64t82.5 -170l1 -10h-86l-2 10
q-34 166 -196 166q-104 0 -166 -81.5t-62 -208.5q0 -129 60.5 -210.5t161.5 -81.5q162 0 196 166z" />
    <glyph glyph-name="Egrave" unicode="&#xc8;" horiz-adv-x="587" 
d="M312 736l-78 94h80l54 -94h-56zM559 70v-70h-459v690h449v-70h-363v-240h333v-70h-333v-240h373z" />
    <glyph glyph-name="Eacute" unicode="&#xc9;" horiz-adv-x="587" 
d="M359 736h-56l54 94h80zM559 70v-70h-459v690h449v-70h-363v-240h333v-70h-333v-240h373z" />
    <glyph glyph-name="Ecircumflex" unicode="&#xca;" horiz-adv-x="587" 
d="M306 736h-66l67 94h59l67 -94h-67l-30 55zM559 70v-70h-459v690h449v-70h-363v-240h333v-70h-333v-240h373z" />
    <glyph glyph-name="Edieresis" unicode="&#xcb;" horiz-adv-x="587" 
d="M266 737q-19 0 -32.5 13.5t-13.5 32.5t13.5 32.5t32.5 13.5t32.5 -13.5t13.5 -32.5t-13.5 -32.5t-32.5 -13.5zM406 737q-19 0 -32.5 13.5t-13.5 32.5t13.5 32.5t32.5 13.5t32.5 -13.5t13.5 -32.5t-13.5 -32.5t-32.5 -13.5zM559 70v-70h-459v690h449v-70h-363v-240h333
v-70h-333v-240h373z" />
    <glyph glyph-name="Igrave" unicode="&#xcc;" horiz-adv-x="264" 
d="M175 736h-56l-78 94h80zM186 0h-86v690h86v-690z" />
    <glyph glyph-name="Iacute" unicode="&#xcd;" horiz-adv-x="264" 
d="M166 736h-56l54 94h80zM186 0h-86v690h86v-690z" />
    <glyph glyph-name="Icircumflex" unicode="&#xce;" horiz-adv-x="264" 
d="M113 736h-66l67 94h59l67 -94h-67l-30 55zM100 690h86v-690h-86v690z" />
    <glyph glyph-name="Idieresis" unicode="&#xcf;" horiz-adv-x="264" 
d="M73 829q19 0 32.5 -13.5t13.5 -32.5t-13.5 -32.5t-32.5 -13.5t-32.5 13.5t-13.5 32.5t13.5 32.5t32.5 13.5zM213 829q19 0 32.5 -13.5t13.5 -32.5t-13.5 -32.5t-32.5 -13.5t-32.5 13.5t-13.5 32.5t13.5 32.5t32.5 13.5zM186 0h-86v690h86v-690z" />
    <glyph glyph-name="Eth" unicode="&#xd0;" horiz-adv-x="701" 
d="M390 686q125 -16 199 -100t74 -233q0 -148 -77 -241t-201 -108q-35 -4 -88 -4h-205v305h-59v56h59v329h210q53 0 88 -4zM376 75q90 15 141.5 86.5t51.5 191.5q0 113 -49.5 180.5t-138.5 81.5q-28 5 -84 5h-119v-259h136v-56h-136v-235h114q56 0 84 5z" />
    <glyph glyph-name="Ntilde" unicode="&#xd1;" horiz-adv-x="718" 
d="M316 821q23 0 62 -13q33 -11 44 -11q16 0 16 20h38q0 -40 -13 -55.5t-39 -15.5q-23 0 -62 13q-33 11 -44 11q-16 0 -16 -20h-38q0 40 13 55.5t39 15.5zM640 0h-132l-325 606q3 -122 3 -261v-345h-86v690h132l325 -606q-3 121 -3 261v345h84z" />
    <glyph glyph-name="Ograve" unicode="&#xd2;" horiz-adv-x="737" 
d="M349 736l-78 94h80l54 -94h-56zM373 704q154 0 240 -98.5t86 -260.5q0 -161 -86 -260t-240 -99t-240 99t-86 260q0 162 86 260.5t240 98.5zM373 54q108 0 169 78t61 213q0 136 -61 213.5t-169 77.5t-169 -77.5t-61 -213.5q0 -135 61 -213t169 -78z" />
    <glyph glyph-name="Oacute" unicode="&#xd3;" horiz-adv-x="737" 
d="M396 736h-56l54 94h80zM373 704q154 0 240 -98.5t86 -260.5q0 -161 -86 -260t-240 -99t-240 99t-86 260q0 162 86 260.5t240 98.5zM373 54q108 0 169 78t61 213q0 136 -61 213.5t-169 77.5t-169 -77.5t-61 -213.5q0 -135 61 -213t169 -78z" />
    <glyph glyph-name="Ocircumflex" unicode="&#xd4;" horiz-adv-x="737" 
d="M343 736h-66l67 94h59l67 -94h-67l-30 55zM373 704q154 0 240 -98.5t86 -260.5q0 -161 -86 -260t-240 -99t-240 99t-86 260q0 162 86 260.5t240 98.5zM373 54q108 0 169 78t61 213q0 136 -61 213.5t-169 77.5t-169 -77.5t-61 -213.5q0 -135 61 -213t169 -78z" />
    <glyph glyph-name="Otilde" unicode="&#xd5;" horiz-adv-x="737" 
d="M321 770q-16 0 -16 -20h-38q0 40 13 55.5t39 15.5q23 0 62 -13q33 -11 44 -11q16 0 16 20h38q0 -40 -13 -55.5t-39 -15.5q-23 0 -62 13q-33 11 -44 11zM373 704q154 0 240 -98.5t86 -260.5q0 -161 -86 -260t-240 -99t-240 99t-86 260q0 162 86 260.5t240 98.5zM373 54
q108 0 169 78t61 213q0 136 -61 213.5t-169 77.5t-169 -77.5t-61 -213.5q0 -135 61 -213t169 -78z" />
    <glyph glyph-name="Odieresis" unicode="&#xd6;" horiz-adv-x="737" 
d="M303 737q-19 0 -32.5 13.5t-13.5 32.5t13.5 32.5t32.5 13.5t32.5 -13.5t13.5 -32.5t-13.5 -32.5t-32.5 -13.5zM443 737q-19 0 -32.5 13.5t-13.5 32.5t13.5 32.5t32.5 13.5t32.5 -13.5t13.5 -32.5t-13.5 -32.5t-32.5 -13.5zM373 704q154 0 240 -98.5t86 -260.5
q0 -161 -86 -260t-240 -99t-240 99t-86 260q0 162 86 260.5t240 98.5zM373 54q108 0 169 78t61 213q0 136 -61 213.5t-169 77.5t-169 -77.5t-61 -213.5q0 -135 61 -213t169 -78z" />
    <glyph glyph-name="multiply" unicode="&#xd7;" 
d="M331 314l138 -138l-41 -41l-138 138l-138 -138l-41 41l138 138l-138 138l41 41l138 -138l138 138l41 -41z" />
    <glyph glyph-name="Oslash" unicode="&#xd8;" horiz-adv-x="745" 
d="M711 638l-67 -67q59 -91 59 -226q0 -161 -86 -260t-240 -99q-144 0 -230 88l-63 -63l-41 41l68 68q-60 90 -60 225q0 162 86 260.5t240 98.5q144 0 230 -88l63 63zM147 345q0 -93 29 -160l372 372q-62 79 -171 79q-108 0 -169 -77.5t-61 -213.5zM607 345q0 93 -29 160
l-371 -371q60 -80 170 -80q108 0 169 78t61 213z" />
    <glyph glyph-name="Ugrave" unicode="&#xd9;" horiz-adv-x="682" 
d="M385 736h-56l-78 94h80zM612 690v-435q0 -42 -2 -62q-8 -92 -72.5 -149.5t-184.5 -57.5t-184.5 57.5t-72.5 149.5q-2 20 -2 62v435h86v-427q0 -43 2 -61q6 -68 50 -108t121 -40t121 40t50 108q2 18 2 61v427h86z" />
    <glyph glyph-name="Uacute" unicode="&#xda;" horiz-adv-x="682" 
d="M376 736h-56l54 94h80zM612 690v-435q0 -42 -2 -62q-8 -92 -72.5 -149.5t-184.5 -57.5t-184.5 57.5t-72.5 149.5q-2 20 -2 62v435h86v-427q0 -43 2 -61q6 -68 50 -108t121 -40t121 40t50 108q2 18 2 61v427h86z" />
    <glyph glyph-name="Ucircumflex" unicode="&#xdb;" horiz-adv-x="682" 
d="M323 736h-66l67 94h59l67 -94h-67l-30 55zM612 690v-435q0 -42 -2 -62q-8 -92 -72.5 -149.5t-184.5 -57.5t-184.5 57.5t-72.5 149.5q-2 20 -2 62v435h86v-427q0 -43 2 -61q6 -68 50 -108t121 -40t121 40t50 108q2 18 2 61v427h86z" />
    <glyph glyph-name="Udieresis" unicode="&#xdc;" horiz-adv-x="682" 
d="M283 829q19 0 32.5 -13.5t13.5 -32.5t-13.5 -32.5t-32.5 -13.5t-32.5 13.5t-13.5 32.5t13.5 32.5t32.5 13.5zM423 829q19 0 32.5 -13.5t13.5 -32.5t-13.5 -32.5t-32.5 -13.5t-32.5 13.5t-13.5 32.5t13.5 32.5t32.5 13.5zM612 690v-435q0 -42 -2 -62q-8 -92 -72.5 -149.5
t-184.5 -57.5t-184.5 57.5t-72.5 149.5q-2 20 -2 62v435h86v-427q0 -43 2 -61q6 -68 50 -108t121 -40t121 40t50 108q2 18 2 61v427h86z" />
    <glyph glyph-name="Yacute" unicode="&#xdd;" horiz-adv-x="581" 
d="M329 736h-56l54 94h80zM349 272v-272h-86v272l-244 418h99l192 -335l186 335h97z" />
    <glyph glyph-name="Thorn" unicode="&#xde;" horiz-adv-x="630" 
d="M409 598q78 -10 126 -59t48 -131t-48 -132.5t-126 -60.5q-31 -4 -90 -4h-133v-211h-86v690h86v-88h133q59 0 90 -4zM396 288q95 21 95 118q0 98 -95 119q-24 5 -77 5h-133v-247h133q53 0 77 5z" />
    <glyph glyph-name="germandbls" unicode="&#xdf;" horiz-adv-x="608" 
d="M306 754q101 0 160.5 -48t59.5 -127q0 -53 -31 -103q-77 -41 -77 -78q0 -26 14 -46t51 -50q45 -37 65 -72.5t20 -87.5q0 -67 -54 -106.5t-134 -39.5q-49 0 -98 10v69q52 -13 94 -13q48 0 72 23.5t24 63.5q0 27 -13 51t-51 57q-49 43 -67.5 71.5t-18.5 69.5q0 72 90 116
q18 31 18 64q0 51 -32.5 79.5t-95.5 28.5q-58 0 -96.5 -37t-43.5 -107q-2 -28 -2 -54v-488h-86v480q0 28 2 64q6 103 69.5 156.5t160.5 53.5z" />
    <glyph glyph-name="agrave" unicode="&#xe0;" horiz-adv-x="531" 
d="M240 580l-85 110h80l61 -110h-56zM378 0l-9 76l-29 -57q-48 -33 -133 -33q-75 0 -123 40t-48 111q0 91 72 136.5t226 45.5h34v14q0 44 -2 64q-7 81 -103 81q-105 0 -114 -112h-90q6 84 60.5 131t143.5 47q174 0 188 -140q3 -31 3 -70v-199q0 -61 10 -135h-86zM236 52
q61 0 96.5 39t35.5 110v54q-238 18 -238 -111q0 -92 106 -92z" />
    <glyph glyph-name="aacute" unicode="&#xe1;" horiz-adv-x="531" 
d="M286 580h-56l61 110h80zM378 0l-9 76l-29 -57q-48 -33 -133 -33q-75 0 -123 40t-48 111q0 91 72 136.5t226 45.5h34v14q0 44 -2 64q-7 81 -103 81q-105 0 -114 -112h-90q6 84 60.5 131t143.5 47q174 0 188 -140q3 -31 3 -70v-199q0 -61 10 -135h-86zM236 52q61 0 96.5 39
t35.5 110v54q-238 18 -238 -111q0 -92 106 -92z" />
    <glyph glyph-name="acircumflex" unicode="&#xe2;" horiz-adv-x="531" 
d="M231 580h-63l67 110h59l67 -110h-64l-33 63zM378 0l-9 76l-29 -57q-48 -33 -133 -33q-75 0 -123 40t-48 111q0 91 72 136.5t226 45.5h34v14q0 44 -2 64q-7 81 -103 81q-105 0 -114 -112h-90q6 84 60.5 131t143.5 47q174 0 188 -140q3 -31 3 -70v-199q0 -61 10 -135h-86z
M236 52q61 0 96.5 39t35.5 110v54q-238 18 -238 -111q0 -92 106 -92z" />
    <glyph glyph-name="atilde" unicode="&#xe3;" horiz-adv-x="531" 
d="M212 620q-16 0 -16 -20h-38q0 40 13 55.5t39 15.5q23 0 62 -13q33 -11 44 -11q16 0 16 20h38q0 -40 -13 -55.5t-39 -15.5q-23 0 -62 13q-33 11 -44 11zM378 0l-9 76l-29 -57q-48 -33 -133 -33q-75 0 -123 40t-48 111q0 91 72 136.5t226 45.5h34v14q0 44 -2 64
q-7 81 -103 81q-105 0 -114 -112h-90q6 84 60.5 131t143.5 47q174 0 188 -140q3 -31 3 -70v-199q0 -61 10 -135h-86zM236 52q61 0 96.5 39t35.5 110v54q-238 18 -238 -111q0 -92 106 -92z" />
    <glyph glyph-name="adieresis" unicode="&#xe4;" horiz-adv-x="531" 
d="M191 583q-19 0 -32.5 13.5t-13.5 32.5t13.5 32.5t32.5 13.5t32.5 -13.5t13.5 -32.5t-13.5 -32.5t-32.5 -13.5zM337 583q-19 0 -32.5 13.5t-13.5 32.5t13.5 32.5t32.5 13.5t32.5 -13.5t13.5 -32.5t-13.5 -32.5t-32.5 -13.5zM378 0l-9 76l-29 -57q-48 -33 -133 -33
q-75 0 -123 40t-48 111q0 91 72 136.5t226 45.5h34v14q0 44 -2 64q-7 81 -103 81q-105 0 -114 -112h-90q6 84 60.5 131t143.5 47q174 0 188 -140q3 -31 3 -70v-199q0 -61 10 -135h-86zM236 52q61 0 96.5 39t35.5 110v54q-238 18 -238 -111q0 -92 106 -92z" />
    <glyph glyph-name="aring" unicode="&#xe5;" horiz-adv-x="531" 
d="M264 565q-40 0 -65.5 23.5t-25.5 60.5t25.5 60.5t65.5 23.5t65.5 -23.5t25.5 -60.5t-25.5 -60.5t-65.5 -23.5zM264 697q-18 0 -29.5 -13t-11.5 -35t11.5 -35t29.5 -13t29.5 13t11.5 35t-11.5 35t-29.5 13zM378 0l-9 76l-29 -57q-48 -33 -133 -33q-75 0 -123 40t-48 111
q0 91 72 136.5t226 45.5h34v14q0 44 -2 64q-7 81 -103 81q-105 0 -114 -112h-90q6 84 60.5 131t143.5 47q174 0 188 -140q3 -31 3 -70v-199q0 -61 10 -135h-86zM236 52q61 0 96.5 39t35.5 110v54q-238 18 -238 -111q0 -92 106 -92z" />
    <glyph glyph-name="ae" unicode="&#xe6;" horiz-adv-x="888" 
d="M848 280q0 -22 -2 -41h-382q6 -94 47 -140.5t103 -46.5q53 0 90.5 31.5t46.5 87.5h90q-15 -91 -79.5 -138t-151.5 -47q-142 0 -199 115l-27 -54q-70 -61 -170 -61q-76 0 -127 40t-51 111q0 89 75 128.5t233 39.5h34v28q0 145 -115 145q-109 0 -114 -112h-90
q2 84 56.5 131t147.5 47q137 0 176 -96q63 96 182 96q107 0 167 -72.5t60 -191.5zM464 305h297q-14 173 -142 173q-65 0 -106 -44.5t-49 -128.5zM378 209v30q-127 5 -187.5 -14.5t-60.5 -80.5q0 -92 106 -92q61 0 101.5 43t40.5 114z" />
    <glyph glyph-name="ccedilla" unicode="&#xe7;" horiz-adv-x="529" 
d="M271 52q53 0 88.5 30t48.5 87h90q-18 -87 -75 -133t-142 -50l-14 -26q81 -11 81 -83q0 -41 -33.5 -64t-89.5 -23q-29 0 -50 9v44q21 -11 53 -11q62 0 62 44q0 53 -96 46l36 66q-92 11 -146 80t-54 196q0 129 72 204.5t177 75.5q94 0 153 -52t71 -140h-90
q-28 126 -136 126q-66 0 -109.5 -53t-43.5 -155q0 -109 41.5 -163.5t105.5 -54.5z" />
    <glyph glyph-name="egrave" unicode="&#xe8;" horiz-adv-x="549" 
d="M253 580l-85 110h80l61 -110h-56zM509 280q0 -22 -2 -41h-384q6 -99 47 -143t105 -44q53 0 90.5 31.5t46.5 87.5h90q-15 -91 -79.5 -138t-151.5 -47q-108 0 -174.5 71t-66.5 206q0 127 71 204t181 77q107 0 167 -72.5t60 -191.5zM280 478q-64 0 -106.5 -45t-49.5 -128
h298q-13 173 -142 173z" />
    <glyph glyph-name="eacute" unicode="&#xe9;" horiz-adv-x="549" 
d="M299 580h-56l61 110h80zM509 280q0 -22 -2 -41h-384q6 -99 47 -143t105 -44q53 0 90.5 31.5t46.5 87.5h90q-15 -91 -79.5 -138t-151.5 -47q-108 0 -174.5 71t-66.5 206q0 127 71 204t181 77q107 0 167 -72.5t60 -191.5zM280 478q-64 0 -106.5 -45t-49.5 -128h298
q-13 173 -142 173z" />
    <glyph glyph-name="ecircumflex" unicode="&#xea;" horiz-adv-x="549" 
d="M244 580h-63l67 110h59l67 -110h-64l-33 63zM509 280q0 -22 -2 -41h-384q6 -99 47 -143t105 -44q53 0 90.5 31.5t46.5 87.5h90q-15 -91 -79.5 -138t-151.5 -47q-108 0 -174.5 71t-66.5 206q0 127 71 204t181 77q107 0 167 -72.5t60 -191.5zM280 478q-64 0 -106.5 -45
t-49.5 -128h298q-13 173 -142 173z" />
    <glyph glyph-name="edieresis" unicode="&#xeb;" horiz-adv-x="549" 
d="M204 583q-19 0 -32.5 13.5t-13.5 32.5t13.5 32.5t32.5 13.5t32.5 -13.5t13.5 -32.5t-13.5 -32.5t-32.5 -13.5zM350 583q-19 0 -32.5 13.5t-13.5 32.5t13.5 32.5t32.5 13.5t32.5 -13.5t13.5 -32.5t-13.5 -32.5t-32.5 -13.5zM509 280q0 -22 -2 -41h-384q6 -99 47 -143
t105 -44q53 0 90.5 31.5t46.5 87.5h90q-15 -91 -79.5 -138t-151.5 -47q-108 0 -174.5 71t-66.5 206q0 127 71 204t181 77q107 0 167 -72.5t60 -191.5zM280 478q-64 0 -106.5 -45t-49.5 -128h298q-13 173 -142 173z" />
    <glyph glyph-name="igrave" unicode="&#xec;" horiz-adv-x="238" 
d="M149 580h-56l-85 110h80zM160 0h-86v530h86v-530z" />
    <glyph glyph-name="iacute" unicode="&#xed;" horiz-adv-x="238" 
d="M139 580h-56l61 110h80zM160 0h-86v530h86v-530z" />
    <glyph glyph-name="icircumflex" unicode="&#xee;" horiz-adv-x="238" 
d="M84 580h-63l67 110h59l67 -110h-64l-33 63zM74 530h86v-530h-86v530z" />
    <glyph glyph-name="idieresis" unicode="&#xef;" horiz-adv-x="238" 
d="M44 675q19 0 32.5 -13.5t13.5 -32.5t-13.5 -32.5t-32.5 -13.5t-32.5 13.5t-13.5 32.5t13.5 32.5t32.5 13.5zM190 675q19 0 32.5 -13.5t13.5 -32.5t-13.5 -32.5t-32.5 -13.5t-32.5 13.5t-13.5 32.5t13.5 32.5t32.5 13.5zM160 0h-86v530h86v-530z" />
    <glyph glyph-name="eth" unicode="&#xf0;" horiz-adv-x="585" 
d="M483 662l-42 -17q97 -112 97 -338q0 -164 -74 -242.5t-187 -78.5q-120 0 -183.5 75t-63.5 196q0 130 71 208.5t171 78.5q68 0 117 -29l45 -60q-7 97 -68 159l-138 -57l-20 52l109 45q-35 21 -76 36l54 55q57 -23 101 -58l67 27zM444 260v29q0 95 -48.5 142t-113.5 47
q-70 0 -114 -58.5t-44 -152.5q0 -101 40.5 -158t118.5 -57q70 0 115.5 53t45.5 155z" />
    <glyph glyph-name="ntilde" unicode="&#xf1;" horiz-adv-x="593" 
d="M253 620q-16 0 -16 -20h-38q0 40 13 55.5t39 15.5q23 0 62 -13q33 -11 44 -11q16 0 16 20h38q0 -40 -13 -55.5t-39 -15.5q-23 0 -62 13q-33 11 -44 11zM520 389q2 -27 2 -91v-298h-86v292q0 49 -2 76q-9 108 -121 108q-68 0 -110.5 -58t-42.5 -185v-233h-86v530h86v-91
l33 61q57 44 138 44q85 0 134 -42t55 -113z" />
    <glyph glyph-name="ograve" unicode="&#xf2;" horiz-adv-x="586" 
d="M269 580l-85 110h80l61 -110h-56zM293 544q128 0 195.5 -79.5t67.5 -199.5t-67.5 -199.5t-195.5 -79.5t-195.5 79.5t-67.5 199.5t67.5 199.5t195.5 79.5zM293 52q79 0 124 59t45 154q0 96 -45 154.5t-124 58.5t-124 -58.5t-45 -154.5q0 -95 45 -154t124 -59z" />
    <glyph glyph-name="oacute" unicode="&#xf3;" horiz-adv-x="586" 
d="M315 580h-56l61 110h80zM293 544q128 0 195.5 -79.5t67.5 -199.5t-67.5 -199.5t-195.5 -79.5t-195.5 79.5t-67.5 199.5t67.5 199.5t195.5 79.5zM293 52q79 0 124 59t45 154q0 96 -45 154.5t-124 58.5t-124 -58.5t-45 -154.5q0 -95 45 -154t124 -59z" />
    <glyph glyph-name="ocircumflex" unicode="&#xf4;" horiz-adv-x="586" 
d="M260 580h-63l67 110h59l67 -110h-64l-33 63zM293 544q128 0 195.5 -79.5t67.5 -199.5t-67.5 -199.5t-195.5 -79.5t-195.5 79.5t-67.5 199.5t67.5 199.5t195.5 79.5zM293 52q79 0 124 59t45 154q0 96 -45 154.5t-124 58.5t-124 -58.5t-45 -154.5q0 -95 45 -154t124 -59z
" />
    <glyph glyph-name="otilde" unicode="&#xf5;" horiz-adv-x="586" 
d="M241 620q-16 0 -16 -20h-38q0 40 13 55.5t39 15.5q23 0 62 -13q33 -11 44 -11q16 0 16 20h38q0 -40 -13 -55.5t-39 -15.5q-23 0 -62 13q-33 11 -44 11zM293 544q128 0 195.5 -79.5t67.5 -199.5t-67.5 -199.5t-195.5 -79.5t-195.5 79.5t-67.5 199.5t67.5 199.5t195.5 79.5
zM293 52q79 0 124 59t45 154q0 96 -45 154.5t-124 58.5t-124 -58.5t-45 -154.5q0 -95 45 -154t124 -59z" />
    <glyph glyph-name="odieresis" unicode="&#xf6;" horiz-adv-x="586" 
d="M220 583q-19 0 -32.5 13.5t-13.5 32.5t13.5 32.5t32.5 13.5t32.5 -13.5t13.5 -32.5t-13.5 -32.5t-32.5 -13.5zM366 583q-19 0 -32.5 13.5t-13.5 32.5t13.5 32.5t32.5 13.5t32.5 -13.5t13.5 -32.5t-13.5 -32.5t-32.5 -13.5zM293 544q128 0 195.5 -79.5t67.5 -199.5
t-67.5 -199.5t-195.5 -79.5t-195.5 79.5t-67.5 199.5t67.5 199.5t195.5 79.5zM293 52q79 0 124 59t45 154q0 96 -45 154.5t-124 58.5t-124 -58.5t-45 -154.5q0 -95 45 -154t124 -59z" />
    <glyph glyph-name="divide" unicode="&#xf7;" 
d="M292 533q24 0 40 -16t16 -40t-16 -40t-40 -16t-40 16t-16 40t16 40t40 16zM500 291h-420v56h420v-56zM292 213q24 0 40 -16t16 -40t-16 -40t-40 -16t-40 16t-16 40t16 40t40 16z" />
    <glyph glyph-name="oslash" unicode="&#xf8;" horiz-adv-x="620" 
d="M594 508l-74 -74q45 -71 45 -169q0 -120 -67.5 -199.5t-195.5 -79.5q-105 0 -173 57l-62 -62l-41 41l64 64q-51 73 -51 179q0 120 67.5 199.5t195.5 79.5q113 0 181 -65l70 70zM133 265q0 -67 22 -114l270 270q-46 57 -123 57q-79 0 -124 -58.5t-45 -154.5zM471 265
q0 57 -17 103l-267 -267q44 -49 115 -49q79 0 124 59t45 154z" />
    <glyph glyph-name="ugrave" unicode="&#xf9;" horiz-adv-x="592" 
d="M266 580l-85 110h80l61 -110h-56zM514 530v-530h-86v90l-33 -62q-57 -42 -138 -42q-79 0 -127.5 38.5t-58.5 96.5q-5 34 -5 91v318h86v-302q0 -37 4 -73q6 -46 38 -73.5t85 -27.5q68 0 108.5 57.5t40.5 185.5v233h86z" />
    <glyph glyph-name="uacute" unicode="&#xfa;" horiz-adv-x="592" 
d="M312 580h-56l61 110h80zM514 530v-530h-86v90l-33 -62q-57 -42 -138 -42q-79 0 -127.5 38.5t-58.5 96.5q-5 34 -5 91v318h86v-302q0 -37 4 -73q6 -46 38 -73.5t85 -27.5q68 0 108.5 57.5t40.5 185.5v233h86z" />
    <glyph glyph-name="ucircumflex" unicode="&#xfb;" horiz-adv-x="592" 
d="M257 580h-63l67 110h59l67 -110h-64l-33 63zM514 530v-530h-86v90l-33 -62q-57 -42 -138 -42q-79 0 -127.5 38.5t-58.5 96.5q-5 34 -5 91v318h86v-302q0 -37 4 -73q6 -46 38 -73.5t85 -27.5q68 0 108.5 57.5t40.5 185.5v233h86z" />
    <glyph glyph-name="udieresis" unicode="&#xfc;" horiz-adv-x="592" 
d="M217 583q-19 0 -32.5 13.5t-13.5 32.5t13.5 32.5t32.5 13.5t32.5 -13.5t13.5 -32.5t-13.5 -32.5t-32.5 -13.5zM363 583q-19 0 -32.5 13.5t-13.5 32.5t13.5 32.5t32.5 13.5t32.5 -13.5t13.5 -32.5t-13.5 -32.5t-32.5 -13.5zM514 530v-530h-86v90l-33 -62q-57 -42 -138 -42
q-79 0 -127.5 38.5t-58.5 96.5q-5 34 -5 91v318h86v-302q0 -37 4 -73q6 -46 38 -73.5t85 -27.5q68 0 108.5 57.5t40.5 185.5v233h86z" />
    <glyph glyph-name="yacute" unicode="&#xfd;" horiz-adv-x="513" 
d="M279 580h-56l61 110h80zM507 530l-218 -575q-33 -85 -77.5 -125t-108.5 -40q-31 0 -44 2v70q13 -1 31 -1q41 0 68 21t47 72l7 19l-211 557h97l158 -466l157 466h94z" />
    <glyph glyph-name="thorn" unicode="&#xfe;" horiz-adv-x="611" 
d="M340 544q113 0 177 -75.5t64 -195.5q0 -139 -74.5 -213t-184.5 -74q-35 0 -71.5 9.5t-55.5 25.5l-35 52v-269h-86v931h86v-290l40 57q50 42 140 42zM322 52q73 0 119 55t46 156q0 94 -41.5 154.5t-118.5 60.5q-73 0 -120 -50.5t-47 -157.5v-29q0 -95 48.5 -142t113.5 -47
z" />
    <glyph glyph-name="ydieresis" unicode="&#xff;" horiz-adv-x="513" 
d="M184 583q-19 0 -32.5 13.5t-13.5 32.5t13.5 32.5t32.5 13.5t32.5 -13.5t13.5 -32.5t-13.5 -32.5t-32.5 -13.5zM330 583q-19 0 -32.5 13.5t-13.5 32.5t13.5 32.5t32.5 13.5t32.5 -13.5t13.5 -32.5t-13.5 -32.5t-32.5 -13.5zM507 530l-218 -575q-33 -85 -77.5 -125
t-108.5 -40q-31 0 -44 2v70q13 -1 31 -1q41 0 68 21t47 72l7 19l-211 557h97l158 -466l157 466h94z" />
    <glyph glyph-name="Amacron" unicode="&#x100;" horiz-adv-x="639" 
d="M455 757h-240v52h240v-52zM456 244h-254l-81 -244h-92l248 690h116l238 -690h-93zM226 314h207l-100 308z" />
    <glyph glyph-name="amacron" unicode="&#x101;" horiz-adv-x="531" 
d="M384 604h-240v52h240v-52zM378 0l-9 76l-29 -57q-48 -33 -133 -33q-75 0 -123 40t-48 111q0 91 72 136.5t226 45.5h34v14q0 44 -2 64q-7 81 -103 81q-105 0 -114 -112h-90q6 84 60.5 131t143.5 47q174 0 188 -140q3 -31 3 -70v-199q0 -61 10 -135h-86zM236 52
q61 0 96.5 39t35.5 110v54q-238 18 -238 -111q0 -92 106 -92z" />
    <glyph glyph-name="Abreve" unicode="&#x102;" horiz-adv-x="639" 
d="M335 722q-102 0 -102 108h53q1 -53 49 -53t49 53h53q0 -108 -102 -108zM456 244h-254l-81 -244h-92l248 690h116l238 -690h-93zM226 314h207l-100 308z" />
    <glyph glyph-name="abreve" unicode="&#x103;" horiz-adv-x="531" 
d="M264 566q-53 0 -77.5 30.5t-24.5 93.5h53q1 -69 49 -69t49 69h53q0 -124 -102 -124zM378 0l-9 76l-29 -57q-48 -33 -133 -33q-75 0 -123 40t-48 111q0 91 72 136.5t226 45.5h34v14q0 44 -2 64q-7 81 -103 81q-105 0 -114 -112h-90q6 84 60.5 131t143.5 47q174 0 188 -140
q3 -31 3 -70v-199q0 -61 10 -135h-86zM236 52q61 0 96.5 39t35.5 110v54q-238 18 -238 -111q0 -92 106 -92z" />
    <glyph glyph-name="Aogonek" unicode="&#x104;" horiz-adv-x="639" 
d="M504 -119q0 -50 44 -50q30 0 56 20v-49q-37 -25 -89 -25q-93 0 -93 85q0 53 32 92t80 57l-78 233h-254l-81 -244h-92l248 690h116l238 -690h-33q-39 -7 -66.5 -40t-27.5 -79zM226 314h207l-100 308z" />
    <glyph glyph-name="aogonek" unicode="&#x105;" horiz-adv-x="531" 
d="M347 -119q0 -50 44 -50q30 0 56 20v-49q-37 -25 -89 -25q-93 0 -93 85q0 53 32 91.5t80 57.5l-8 65l-29 -57q-48 -33 -133 -33q-75 0 -123 40t-48 111q0 91 72 136.5t226 45.5h34v14q0 44 -2 64q-7 81 -103 81q-105 0 -114 -112h-90q6 84 60.5 131t143.5 47
q174 0 188 -140q3 -31 3 -70v-199q0 -61 10 -135h-23q-39 -7 -66.5 -40t-27.5 -79zM236 52q61 0 96.5 39t35.5 110v54q-238 18 -238 -111q0 -92 106 -92z" />
    <glyph glyph-name="Cacute" unicode="&#x106;" horiz-adv-x="699" 
d="M389 736h-56l54 94h80zM373 704q127 0 198.5 -64t82.5 -170l1 -10h-86l-2 10q-34 166 -196 166q-104 0 -166 -81.5t-62 -208.5q0 -129 60.5 -210.5t161.5 -81.5q162 0 196 166l2 10h86l-1 -10q-10 -101 -84.5 -167.5t-203.5 -66.5q-147 0 -230 100t-83 256
q0 159 90 260.5t236 101.5z" />
    <glyph glyph-name="cacute" unicode="&#x107;" horiz-adv-x="529" 
d="M291 580h-56l61 110h80zM279 544q94 0 153 -52t71 -140h-90q-28 126 -136 126q-66 0 -109.5 -53t-43.5 -155q0 -109 41.5 -163.5t105.5 -54.5q53 0 88.5 30t48.5 87h90q-19 -90 -80 -136.5t-152 -46.5q-106 0 -171 69.5t-65 208.5q0 129 72 204.5t177 75.5z" />
    <glyph glyph-name="Cdotaccent" unicode="&#x10a;" horiz-adv-x="699" 
d="M366 829q19 0 32.5 -13.5t13.5 -32.5t-13.5 -32.5t-32.5 -13.5t-32.5 13.5t-13.5 32.5t13.5 32.5t32.5 13.5zM373 704q127 0 198.5 -64t82.5 -170l1 -10h-86l-2 10q-34 166 -196 166q-104 0 -166 -81.5t-62 -208.5q0 -129 60.5 -210.5t161.5 -81.5q162 0 196 166l2 10h86
l-1 -10q-10 -101 -84.5 -167.5t-203.5 -66.5q-147 0 -230 100t-83 256q0 159 90 260.5t236 101.5z" />
    <glyph glyph-name="cdotaccent" unicode="&#x10b;" horiz-adv-x="529" 
d="M269 704q23 0 39 -16t16 -39t-16 -39t-39 -16t-39 16t-16 39t16 39t39 16zM279 544q94 0 153 -52t71 -140h-90q-28 126 -136 126q-66 0 -109.5 -53t-43.5 -155q0 -109 41.5 -163.5t105.5 -54.5q53 0 88.5 30t48.5 87h90q-19 -90 -80 -136.5t-152 -46.5q-106 0 -171 69.5
t-65 208.5q0 129 72 204.5t177 75.5z" />
    <glyph glyph-name="Ccaron" unicode="&#x10c;" horiz-adv-x="699" 
d="M337 736l-67 94h67l30 -55l30 55h66l-67 -94h-59zM563 230h86l-1 -10q-10 -101 -84.5 -167.5t-203.5 -66.5q-147 0 -230 100t-83 256q0 159 90 260.5t236 101.5q127 0 198.5 -64t82.5 -170l1 -10h-86l-2 10q-34 166 -196 166q-104 0 -166 -81.5t-62 -208.5
q0 -129 60.5 -210.5t161.5 -81.5q162 0 196 166z" />
    <glyph glyph-name="ccaron" unicode="&#x10d;" horiz-adv-x="529" 
d="M240 580l-67 110h64l33 -63l33 63h63l-67 -110h-59zM271 52q53 0 88.5 30t48.5 87h90q-19 -90 -80 -136.5t-152 -46.5q-106 0 -171 69.5t-65 208.5q0 129 72 204.5t177 75.5q94 0 153 -52t71 -140h-90q-28 126 -136 126q-66 0 -109.5 -53t-43.5 -155q0 -109 41.5 -163.5
t105.5 -54.5z" />
    <glyph glyph-name="Dcaron" unicode="&#x10e;" horiz-adv-x="709" 
d="M341 736l-67 94h67l30 -55l30 55h66l-67 -94h-59zM398 686q125 -16 199 -100t74 -233q0 -148 -77 -241t-201 -108q-35 -4 -88 -4h-205v690h210q53 0 88 -4zM384 75q90 15 141.5 86.5t51.5 191.5q0 113 -49.5 180.5t-138.5 81.5q-27 5 -84 5h-119v-550h114q56 0 84 5z" />
    <glyph glyph-name="dcaron" unicode="&#x10f;" horiz-adv-x="615" 
d="M451 735h86v-735h-86v85l-40 -57q-50 -42 -140 -42q-113 0 -177 75.5t-64 195.5q0 139 74.5 213t184.5 74q35 0 71.5 -9.5t55.5 -25.5l35 -52v278zM684 735v-12l-60 -132h-61l52 144h69zM284 52q73 0 120 50.5t47 157.5v29q0 95 -48.5 142t-113.5 47q-73 0 -119 -55
t-46 -156q0 -94 41.5 -154.5t118.5 -60.5z" />
    <glyph glyph-name="Dcroat" unicode="&#x110;" horiz-adv-x="701" 
d="M390 686q125 -16 199 -100t74 -233q0 -148 -77 -241t-201 -108q-35 -4 -88 -4h-205v305h-59v56h59v329h210q53 0 88 -4zM376 75q90 15 141.5 86.5t51.5 191.5q0 113 -49.5 180.5t-138.5 81.5q-28 5 -84 5h-119v-259h136v-56h-136v-235h114q56 0 84 5z" />
    <glyph glyph-name="dcroat" unicode="&#x111;" horiz-adv-x="619" 
d="M581 595h-44v-595h-86v85l-40 -57q-50 -42 -140 -42q-113 0 -177 75.5t-64 195.5q0 139 74.5 213t184.5 74q35 0 71.5 -9.5t55.5 -25.5l35 -52v138h-116v56h116v84h86v-84h44v-56zM284 52q73 0 120 50.5t47 157.5v29q0 95 -48.5 142t-113.5 47q-73 0 -119 -55t-46 -156
q0 -94 41.5 -154.5t118.5 -60.5z" />
    <glyph glyph-name="Emacron" unicode="&#x112;" horiz-adv-x="587" 
d="M456 757h-240v52h240v-52zM559 70v-70h-459v690h449v-70h-363v-240h333v-70h-333v-240h373z" />
    <glyph glyph-name="emacron" unicode="&#x113;" horiz-adv-x="549" 
d="M397 604h-240v52h240v-52zM509 280q0 -22 -2 -41h-384q6 -99 47 -143t105 -44q53 0 90.5 31.5t46.5 87.5h90q-15 -91 -79.5 -138t-151.5 -47q-108 0 -174.5 71t-66.5 206q0 127 71 204t181 77q107 0 167 -72.5t60 -191.5zM280 478q-64 0 -106.5 -45t-49.5 -128h298
q-13 173 -142 173z" />
    <glyph glyph-name="Edotaccent" unicode="&#x116;" horiz-adv-x="587" 
d="M336 737q-19 0 -32.5 13.5t-13.5 32.5t13.5 32.5t32.5 13.5t32.5 -13.5t13.5 -32.5t-13.5 -32.5t-32.5 -13.5zM559 70v-70h-459v690h449v-70h-363v-240h333v-70h-333v-240h373z" />
    <glyph glyph-name="edotaccent" unicode="&#x117;" horiz-adv-x="549" 
d="M277 594q-23 0 -39 16t-16 39t16 39t39 16t39 -16t16 -39t-16 -39t-39 -16zM509 280q0 -22 -2 -41h-384q6 -99 47 -143t105 -44q53 0 90.5 31.5t46.5 87.5h90q-15 -91 -79.5 -138t-151.5 -47q-108 0 -174.5 71t-66.5 206q0 127 71 204t181 77q107 0 167 -72.5t60 -191.5z
M280 478q-64 0 -106.5 -45t-49.5 -128h298q-13 173 -142 173z" />
    <glyph glyph-name="Eogonek" unicode="&#x118;" horiz-adv-x="587" 
d="M510 -169q30 0 56 20v-49q-37 -25 -89 -25q-93 0 -93 85q0 91 89 138h-373v690h449v-70h-363v-240h333v-70h-333v-240h373v-70h1q-39 -7 -66.5 -40t-27.5 -79q0 -50 44 -50z" />
    <glyph glyph-name="eogonek" unicode="&#x119;" horiz-adv-x="549" 
d="M509 280q0 -22 -2 -41h-384q6 -99 47 -143t105 -44q53 0 90.5 31.5t46.5 87.5h90q-21 -130 -142 -171l-21 -6q-32 -13 -52.5 -43.5t-20.5 -69.5q0 -50 44 -50q30 0 56 20v-49q-37 -25 -89 -25q-93 0 -93 85q0 76 67 125q-100 6 -160.5 76.5t-60.5 199.5q0 127 71 204
t181 77q107 0 167 -72.5t60 -191.5zM280 478q-64 0 -106.5 -45t-49.5 -128h298q-13 173 -142 173z" />
    <glyph glyph-name="Ecaron" unicode="&#x11a;" horiz-adv-x="587" 
d="M307 736l-67 94h67l30 -55l30 55h66l-67 -94h-59zM559 70v-70h-459v690h449v-70h-363v-240h333v-70h-333v-240h373z" />
    <glyph glyph-name="ecaron" unicode="&#x11b;" horiz-adv-x="549" 
d="M248 580l-67 110h64l33 -63l33 63h63l-67 -110h-59zM509 280q0 -22 -2 -41h-384q6 -99 47 -143t105 -44q53 0 90.5 31.5t46.5 87.5h90q-15 -91 -79.5 -138t-151.5 -47q-108 0 -174.5 71t-66.5 206q0 127 71 204t181 77q107 0 167 -72.5t60 -191.5zM280 478
q-64 0 -106.5 -45t-49.5 -128h298q-13 173 -142 173z" />
    <glyph glyph-name="Gbreve" unicode="&#x11e;" horiz-adv-x="710" 
d="M363 722q-102 0 -102 108h53q1 -53 49 -53t49 53h53q0 -108 -102 -108zM399 333h247v-333h-76v120l-31 -64q-62 -70 -179 -70q-147 0 -230 100t-83 256q0 159 90 260.5t236 101.5q127 0 198.5 -64t82.5 -170l1 -10h-86l-2 10q-34 166 -196 166q-104 0 -166 -81.5
t-62 -208.5q0 -129 60.5 -210.5t161.5 -81.5q84 0 139.5 58.5t55.5 150.5h-161v70z" />
    <glyph glyph-name="gbreve" unicode="&#x11f;" horiz-adv-x="615" 
d="M303 566q-53 0 -77.5 30.5t-24.5 93.5h53q1 -69 49 -69t49 69h53q0 -124 -102 -124zM537 530v-400q0 -74 -1 -103q-4 -115 -70 -176t-182 -61q-220 0 -237 175l-1 10h87l1 -9q5 -50 44 -80t106 -30q78 0 120.5 42.5t45.5 119.5q1 25 1 58v9l-40 -57q-50 -42 -140 -42
q-113 0 -177 75.5t-64 195.5q0 139 74.5 213t184.5 74q35 0 71.5 -9.5t55.5 -25.5l35 -52v73h86zM284 52q73 0 120 50.5t47 157.5v29q0 95 -48.5 142t-113.5 47q-73 0 -119 -55t-46 -156q0 -94 41.5 -154.5t118.5 -60.5z" />
    <glyph glyph-name="Gdotaccent" unicode="&#x120;" horiz-adv-x="710" 
d="M363 737q-19 0 -32.5 13.5t-13.5 32.5t13.5 32.5t32.5 13.5t32.5 -13.5t13.5 -32.5t-13.5 -32.5t-32.5 -13.5zM399 333h247v-333h-76v120l-31 -64q-62 -70 -179 -70q-147 0 -230 100t-83 256q0 159 90 260.5t236 101.5q127 0 198.5 -64t82.5 -170l1 -10h-86l-2 10
q-34 166 -196 166q-104 0 -166 -81.5t-62 -208.5q0 -129 60.5 -210.5t161.5 -81.5q84 0 139.5 58.5t55.5 150.5h-161v70z" />
    <glyph glyph-name="gdotaccent" unicode="&#x121;" horiz-adv-x="615" 
d="M303 594q-23 0 -39 16t-16 39t16 39t39 16t39 -16t16 -39t-16 -39t-39 -16zM537 530v-400q0 -74 -1 -103q-4 -115 -70 -176t-182 -61q-220 0 -237 175l-1 10h87l1 -9q5 -50 44 -80t106 -30q78 0 120.5 42.5t45.5 119.5q1 25 1 58v9l-40 -57q-50 -42 -140 -42
q-113 0 -177 75.5t-64 195.5q0 139 74.5 213t184.5 74q35 0 71.5 -9.5t55.5 -25.5l35 -52v73h86zM284 52q73 0 120 50.5t47 157.5v29q0 95 -48.5 142t-113.5 47q-73 0 -119 -55t-46 -156q0 -94 41.5 -154.5t118.5 -60.5z" />
    <glyph glyph-name="Gcommaaccent" unicode="&#x122;" horiz-adv-x="710" 
d="M399 333h247v-333h-76v120l-31 -64q-62 -70 -179 -70q-147 0 -230 100t-83 256q0 159 90 260.5t236 101.5q127 0 198.5 -64t82.5 -170l1 -10h-86l-2 10q-34 166 -196 166q-104 0 -166 -81.5t-62 -208.5q0 -129 60.5 -210.5t161.5 -81.5q84 0 139.5 58.5t55.5 150.5h-161
v70zM336 -51h69v-12l-60 -132h-61z" />
    <glyph glyph-name="gcommaaccent" unicode="&#x123;" horiz-adv-x="615" 
d="M334 581h-69v12l60 132h61zM537 530v-400q0 -74 -1 -103q-4 -115 -70 -176t-182 -61q-220 0 -237 175l-1 10h87l1 -9q5 -50 44 -80t106 -30q78 0 120.5 42.5t45.5 119.5q1 25 1 58v9l-40 -57q-50 -42 -140 -42q-113 0 -177 75.5t-64 195.5q0 139 74.5 213t184.5 74
q35 0 71.5 -9.5t55.5 -25.5l35 -52v73h86zM284 52q73 0 120 50.5t47 157.5v29q0 95 -48.5 142t-113.5 47q-73 0 -119 -55t-46 -156q0 -94 41.5 -154.5t118.5 -60.5z" />
    <glyph glyph-name="Hbar" unicode="&#x126;" horiz-adv-x="730" 
d="M692 502h-40v-502h-86v302h-380v-302h-86v502h-40v56h40v132h86v-132h380v132h86v-132h40v-56zM566 502h-380v-128h380v128z" />
    <glyph glyph-name="hbar" unicode="&#x127;" horiz-adv-x="609" 
d="M536 389q2 -27 2 -91v-298h-86v292q0 49 -2 76q-4 50 -33.5 79.5t-87.5 28.5q-69 -2 -111 -59t-42 -184v-233h-86v595h-56v56h56v89h86v-89h104v-56h-104v-156l33 61q57 44 138 44q85 0 134 -42t55 -113z" />
    <glyph glyph-name="Imacron" unicode="&#x12a;" horiz-adv-x="264" 
d="M263 757h-240v52h240v-52zM186 0h-86v690h86v-690z" />
    <glyph glyph-name="imacron" unicode="&#x12b;" horiz-adv-x="238" 
d="M237 604h-240v52h240v-52zM160 0h-86v530h86v-530z" />
    <glyph glyph-name="Iogonek" unicode="&#x12e;" horiz-adv-x="264" 
d="M186 0h-24q-39 -7 -66.5 -40t-27.5 -79q0 -50 44 -50q30 0 56 20v-49q-37 -25 -89 -25q-93 0 -93 85q0 54 32.5 92.5t80.5 56.5h1v679h86v-690z" />
    <glyph glyph-name="iogonek" unicode="&#x12f;" horiz-adv-x="238" 
d="M117 594q-23 0 -39 16t-16 39t16 39t39 16t39 -16t16 -39t-16 -39t-39 -16zM74 530h86v-530h-23q-39 -7 -66.5 -40t-27.5 -79q0 -50 44 -50q30 0 56 20v-49q-37 -25 -89 -25q-93 0 -93 85q0 54 32.5 92.5t80.5 56.5v519z" />
    <glyph glyph-name="Idotaccent" unicode="&#x130;" horiz-adv-x="264" 
d="M143 829q19 0 32.5 -13.5t13.5 -32.5t-13.5 -32.5t-32.5 -13.5t-32.5 13.5t-13.5 32.5t13.5 32.5t32.5 13.5zM186 0h-86v690h86v-690z" />
    <glyph glyph-name="dotlessi" unicode="&#x131;" horiz-adv-x="238" 
d="M160 0h-86v530h86v-530z" />
    <glyph glyph-name="IJ" unicode="&#x132;" horiz-adv-x="808" 
d="M186 0h-86v690h86v-690zM752 690v-426q0 -49 -2 -83q-5 -91 -61 -143t-162 -52q-96 0 -150.5 55.5t-56.5 152.5l-1 41h86l2 -41q7 -140 132 -140q116 0 126 132q1 20 1 81v423h86z" />
    <glyph glyph-name="ij" unicode="&#x133;" horiz-adv-x="471" 
d="M117 704q23 0 39 -16t16 -39t-16 -39t-39 -16t-39 16t-16 39t16 39t39 16zM350 704q23 0 39 -16t16 -39t-16 -39t-39 -16t-39 16t-16 39t16 39t39 16zM160 0h-86v530h86v-530zM393 530v-576q0 -37 -3 -64q-11 -100 -124 -100q-28 0 -41 2v70q74 -7 80 44q2 14 2 44v580
h86z" />
    <glyph glyph-name="Kcommaaccent" unicode="&#x136;" horiz-adv-x="609" 
d="M315 353l295 -353h-121l-237 295l-66 -71v-224h-86v690h86v-367l341 367h101zM309 -51h69v-12l-60 -132h-61z" />
    <glyph glyph-name="kcommaaccent" unicode="&#x137;" horiz-adv-x="522" 
d="M520 0h-117l-193 224l-50 -55v-169h-86v735h86v-472l247 267h110l-247 -250zM242 -51h69v-12l-60 -132h-61z" />
    <glyph glyph-name="Lacute" unicode="&#x139;" horiz-adv-x="575" 
d="M166 736h-56l54 94h80zM559 70v-70h-459v690h86v-620h373z" />
    <glyph glyph-name="lacute" unicode="&#x13a;" horiz-adv-x="247" 
d="M135 785h-56l61 110h80zM156 735v-583q0 -33 1 -50q2 -26 16 -35t49 -5v-62q-25 -4 -61 -4q-42 0 -65 18t-25 65q-1 18 -1 70v586h86z" />
    <glyph glyph-name="Lcommaaccent" unicode="&#x13b;" horiz-adv-x="575" 
d="M559 70v-70h-459v690h86v-620h373zM305 -51h69v-12l-60 -132h-61z" />
    <glyph glyph-name="lcommaaccent" unicode="&#x13c;" horiz-adv-x="247" 
d="M156 735v-583q0 -33 1 -50q2 -26 16 -35t49 -5v-62q-25 -4 -61 -4q-42 0 -65 18t-25 65q-1 18 -1 70v586h86zM161 -63l-60 -132h-61l52 144h69v-12z" />
    <glyph glyph-name="Lcaron" unicode="&#x13d;" horiz-adv-x="575" 
d="M559 70v-70h-459v690h86v-620h373z" />
    <glyph glyph-name="lcaron" unicode="&#x13e;" horiz-adv-x="247" 
d="M156 735v-583q0 -33 1 -50q2 -26 16 -35t49 -5v-62q-25 -4 -61 -4q-42 0 -65 18t-25 65q-1 18 -1 70v586h86z" />
    <glyph glyph-name="Ldot" unicode="&#x13f;" horiz-adv-x="575" 
d="M559 70v-70h-459v690h86v-620h373zM392 345q-23 0 -39 16t-16 39t16 39t39 16t39 -16t16 -39t-16 -39t-39 -16z" />
    <glyph glyph-name="ldot" unicode="&#x140;" horiz-adv-x="350" 
d="M156 735v-583q0 -33 1 -50q2 -26 16 -35t49 -5v-62q-25 -4 -61 -4q-42 0 -65 18t-25 65q-1 18 -1 70v586h86zM281 455q23 0 39 -16t16 -39t-16 -39t-39 -16t-39 16t-16 39t16 39t39 16z" />
    <glyph glyph-name="Lslash" unicode="&#x141;" horiz-adv-x="597" 
d="M581 70v-70h-459v288l-108 -64v67l108 64v335h86v-284l126 75v-67l-126 -75v-269h373z" />
    <glyph glyph-name="lslash" unicode="&#x142;" horiz-adv-x="284" 
d="M184 102q2 -26 16 -35t49 -5v-62q-25 -4 -61 -4q-42 0 -65 18t-25 65q-1 18 -1 70v115l-65 -39v67l65 39v404h86v-354l65 39v-67l-65 -39v-162q0 -33 1 -50z" />
    <glyph glyph-name="Nacute" unicode="&#x143;" horiz-adv-x="718" 
d="M393 736h-56l54 94h80zM640 0h-132l-325 606q3 -122 3 -261v-345h-86v690h132l325 -606q-3 121 -3 261v345h84z" />
    <glyph glyph-name="nacute" unicode="&#x144;" horiz-adv-x="593" 
d="M412 690l-85 -110h-56l61 110h80zM520 389q2 -27 2 -91v-298h-86v292q0 49 -2 76q-9 108 -121 108q-68 0 -110.5 -58t-42.5 -185v-233h-86v530h86v-91l33 61q57 44 138 44q85 0 134 -42t55 -113z" />
    <glyph glyph-name="Ncommaaccent" unicode="&#x145;" horiz-adv-x="718" 
d="M640 0h-132l-325 606q3 -122 3 -261v-345h-86v690h132l325 -606q-3 121 -3 261v345h84zM414 -63l-60 -132h-61l52 144h69v-12z" />
    <glyph glyph-name="ncommaaccent" unicode="&#x146;" horiz-adv-x="593" 
d="M520 389q2 -27 2 -91v-298h-86v292q0 49 -2 76q-9 108 -121 108q-68 0 -110.5 -58t-42.5 -185v-233h-86v530h86v-91l33 61q57 44 138 44q85 0 134 -42t55 -113zM213 -195l52 144h69v-12l-60 -132h-61z" />
    <glyph glyph-name="Ncaron" unicode="&#x147;" horiz-adv-x="718" 
d="M341 736l-67 94h67l30 -55l30 55h66l-67 -94h-59zM508 0l-325 606q3 -122 3 -261v-345h-86v690h132l325 -606q-3 121 -3 261v345h84l2 -690h-132z" />
    <glyph glyph-name="ncaron" unicode="&#x148;" horiz-adv-x="593" 
d="M335 580h-59l-67 110h64l33 -63l33 63h63zM520 389q2 -27 2 -91v-298h-86v292q0 49 -2 76q-9 108 -121 108q-68 0 -110.5 -58t-42.5 -185v-233h-86v530h86v-91l33 61q57 44 138 44q85 0 134 -42t55 -113z" />
    <glyph glyph-name="Eng" unicode="&#x14a;" horiz-adv-x="718" 
d="M640 690v-757q0 -27 -1 -41q-6 -63 -46 -89t-111 -26v70q39 0 55 17.5t16 52.5v52l-370 629q3 -121 3 -253v-345h-86v690h132l325 -566q-3 122 -3 241v325h86z" />
    <glyph glyph-name="eng" unicode="&#x14b;" horiz-adv-x="593" 
d="M520 389q2 -27 2 -91v-352q0 -27 -1 -41q-5 -67 -45 -91t-121 -24v70q42 0 59.5 11t20.5 42q1 8 1 27v352q0 49 -2 76q-9 108 -121 108q-68 0 -110.5 -58t-42.5 -185v-233h-86v530h86v-91l33 61q57 44 138 44q85 0 134 -42t55 -113z" />
    <glyph glyph-name="Omacron" unicode="&#x14c;" horiz-adv-x="737" 
d="M493 757h-240v52h240v-52zM373 704q154 0 240 -98.5t86 -260.5q0 -161 -86 -260t-240 -99t-240 99t-86 260q0 162 86 260.5t240 98.5zM373 54q108 0 169 78t61 213q0 136 -61 213.5t-169 77.5t-169 -77.5t-61 -213.5q0 -135 61 -213t169 -78z" />
    <glyph glyph-name="omacron" unicode="&#x14d;" horiz-adv-x="586" 
d="M413 604h-240v52h240v-52zM293 544q128 0 195.5 -79.5t67.5 -199.5t-67.5 -199.5t-195.5 -79.5t-195.5 79.5t-67.5 199.5t67.5 199.5t195.5 79.5zM293 52q79 0 124 59t45 154q0 96 -45 154.5t-124 58.5t-124 -58.5t-45 -154.5q0 -95 45 -154t124 -59z" />
    <glyph glyph-name="Ohungarumlaut" unicode="&#x150;" horiz-adv-x="737" 
d="M325 736h-56l54 94h80zM378 736l54 94h80l-78 -94h-56zM373 704q154 0 240 -98.5t86 -260.5q0 -161 -86 -260t-240 -99t-240 99t-86 260q0 162 86 260.5t240 98.5zM373 54q108 0 169 78t61 213q0 136 -61 213.5t-169 77.5t-169 -77.5t-61 -213.5q0 -135 61 -213t169 -78z
" />
    <glyph glyph-name="ohungarumlaut" unicode="&#x151;" horiz-adv-x="586" 
d="M259 580h-56l61 110h80zM325 580l61 110h80l-85 -110h-56zM293 544q128 0 195.5 -79.5t67.5 -199.5t-67.5 -199.5t-195.5 -79.5t-195.5 79.5t-67.5 199.5t67.5 199.5t195.5 79.5zM293 52q79 0 124 59t45 154q0 96 -45 154.5t-124 58.5t-124 -58.5t-45 -154.5
q0 -95 45 -154t124 -59z" />
    <glyph glyph-name="OE" unicode="&#x152;" horiz-adv-x="1090" 
d="M1062 70v-70h-459v141l-27 -73q-72 -82 -213 -82q-146 0 -231 102t-85 257q0 156 85 257.5t231 101.5q76 0 124.5 -19.5t88.5 -66.5l27 -71v143h449v-70h-363v-240h333v-70h-333v-240h373zM373 54q107 0 168.5 80t61.5 211q0 132 -61.5 211.5t-168.5 79.5t-168.5 -79.5
t-61.5 -211.5q0 -131 61.5 -211t168.5 -80z" />
    <glyph glyph-name="oe" unicode="&#x153;" horiz-adv-x="981" 
d="M941 280q0 -22 -2 -41h-382q6 -94 47 -140.5t103 -46.5q53 0 90.5 31.5t46.5 87.5h90q-15 -91 -79.5 -138t-151.5 -47q-138 0 -197 126q-62 -126 -213 -126q-128 0 -195.5 79.5t-67.5 199.5t67.5 199.5t195.5 79.5q155 0 217 -129q62 129 204 129q107 0 167 -72.5
t60 -191.5zM293 52q79 0 124 59t45 154q0 96 -45 154.5t-124 58.5t-124 -58.5t-45 -154.5q0 -95 45 -154t124 -59zM557 305h297q-14 173 -142 173q-65 0 -106 -44.5t-49 -128.5z" />
    <glyph glyph-name="Racute" unicode="&#x154;" horiz-adv-x="619" 
d="M345 736h-56l54 94h80zM554 181q12 -136 46 -181h-95q-25 57 -37 173q-13 116 -103 123q-16 1 -49 1h-130v-297h-86v690h226q59 0 90 -4q80 -10 126 -55.5t46 -128.5q0 -64 -35 -105t-88 -58q78 -36 89 -158zM186 367h132q48 0 67 2q50 5 80.5 37t30.5 88q0 106 -101 122
q-25 4 -69 4h-140v-253z" />
    <glyph glyph-name="racute" unicode="&#x155;" horiz-adv-x="330" 
d="M206 580h-56l61 110h80zM282 542q22 0 36 -7v-65q-71 5 -114.5 -38t-43.5 -130v-302h-86v530h86v-83l48 71q35 24 74 24z" />
    <glyph glyph-name="Rcommaaccent" unicode="&#x156;" horiz-adv-x="619" 
d="M554 181q12 -136 46 -181h-95q-25 57 -37 173q-13 116 -103 123q-16 1 -49 1h-130v-297h-86v690h226q59 0 90 -4q80 -10 126 -55.5t46 -128.5q0 -64 -35 -105t-88 -58q78 -36 89 -158zM186 367h132q48 0 67 2q50 5 80.5 37t30.5 88q0 106 -101 122q-25 4 -69 4h-140v-253
zM292 -51h69v-12l-60 -132h-61z" />
    <glyph glyph-name="rcommaaccent" unicode="&#x157;" horiz-adv-x="330" 
d="M282 542q22 0 36 -7v-65q-71 5 -114.5 -38t-43.5 -130v-302h-86v530h86v-83l48 71q35 24 74 24zM86 -51h69v-12l-60 -132h-61z" />
    <glyph glyph-name="Rcaron" unicode="&#x158;" horiz-adv-x="619" 
d="M293 736l-67 94h67l30 -55l30 55h66l-67 -94h-59zM554 181q12 -136 46 -181h-95q-25 57 -37 173q-13 116 -103 123q-16 1 -49 1h-130v-297h-86v690h226q59 0 90 -4q80 -10 126 -55.5t46 -128.5q0 -64 -35 -105t-88 -58q78 -36 89 -158zM186 367h132q48 0 67 2
q50 5 80.5 37t30.5 88q0 106 -101 122q-25 4 -69 4h-140v-253z" />
    <glyph glyph-name="rcaron" unicode="&#x159;" horiz-adv-x="330" 
d="M155 580l-67 110h64l33 -63l33 63h63l-67 -110h-59zM282 542q22 0 36 -7v-65q-71 5 -114.5 -38t-43.5 -130v-302h-86v530h86v-83l48 71q35 24 74 24z" />
    <glyph glyph-name="Sacute" unicode="&#x15a;" horiz-adv-x="585" 
d="M327 736h-56l54 94h80zM314 704q103 0 162 -56t69 -149h-92q-6 66 -43.5 101.5t-102.5 35.5q-58 0 -94.5 -27t-36.5 -79q0 -55 33.5 -84t114.5 -47q117 -27 172.5 -77.5t55.5 -136.5q0 -89 -67.5 -144t-169.5 -55q-114 0 -183 55t-80 155h92q15 -68 60 -105t113 -37
q61 0 102 31t41 84q0 62 -38.5 95.5t-130.5 54.5q-100 23 -153.5 67t-53.5 124q0 87 66 140.5t164 53.5z" />
    <glyph glyph-name="sacute" unicode="&#x15b;" horiz-adv-x="459" 
d="M339 690l-85 -110h-56l61 110h80zM228 544q87 0 136.5 -45t58.5 -120h-90q-19 99 -112 99q-43 0 -65.5 -21.5t-22.5 -57.5q0 -37 28 -57t88 -36q93 -25 136.5 -64.5t43.5 -105.5q0 -72 -54.5 -111t-142.5 -39q-86 0 -141 42t-67 128h90q19 -104 124 -104q45 0 74 20
t29 57q0 38 -28.5 61t-96.5 41q-82 22 -126.5 58t-44.5 100q0 72 50 113.5t133 41.5z" />
    <glyph glyph-name="Scedilla" unicode="&#x15e;" horiz-adv-x="585" 
d="M552 185q0 -87 -64 -141t-162 -58l-14 -26q81 -11 81 -83q0 -41 -33.5 -64t-89.5 -23q-29 0 -50 9v44q21 -11 53 -11q62 0 62 44q0 53 -96 46l36 66q-97 10 -155 63.5t-68 144.5h92q15 -68 60 -105t113 -37q61 0 102 31t41 84q0 62 -38.5 95.5t-130.5 54.5
q-100 23 -153.5 67t-53.5 124q0 87 66 140.5t164 53.5q103 0 162 -56t69 -149h-92q-6 66 -43.5 101.5t-102.5 35.5q-58 0 -94.5 -27t-36.5 -79q0 -55 33.5 -84t114.5 -47q117 -27 172.5 -77.5t55.5 -136.5z" />
    <glyph glyph-name="scedilla" unicode="&#x15f;" horiz-adv-x="459" 
d="M429 136q0 -66 -45.5 -104t-120.5 -45l-15 -27q81 -11 81 -83q0 -41 -33.5 -64t-89.5 -23q-29 0 -50 9v44q21 -11 53 -11q62 0 62 44q0 53 -96 46l35 65q-77 5 -126 46.5t-60 122.5h90q19 -104 124 -104q45 0 74 20t29 57q0 38 -28.5 61t-96.5 41q-82 22 -126.5 58
t-44.5 100q0 72 50 113.5t133 41.5q87 0 136.5 -45t58.5 -120h-90q-19 99 -112 99q-43 0 -65.5 -21.5t-22.5 -57.5q0 -37 28 -57t88 -36q93 -25 136.5 -64.5t43.5 -105.5z" />
    <glyph glyph-name="Scaron" unicode="&#x160;" horiz-adv-x="585" 
d="M275 736l-67 94h67l30 -55l30 55h66l-67 -94h-59zM324 399q117 -27 172.5 -77.5t55.5 -136.5q0 -89 -67.5 -144t-169.5 -55q-114 0 -183 55t-80 155h92q15 -68 60 -105t113 -37q61 0 102 31t41 84q0 62 -38.5 95.5t-130.5 54.5q-100 23 -153.5 67t-53.5 124
q0 87 66 140.5t164 53.5q103 0 162 -56t69 -149h-92q-6 66 -43.5 101.5t-102.5 35.5q-58 0 -94.5 -27t-36.5 -79q0 -55 33.5 -84t114.5 -47z" />
    <glyph glyph-name="scaron" unicode="&#x161;" horiz-adv-x="459" 
d="M262 580h-59l-67 110h64l33 -63l33 63h63zM249 306q93 -25 136.5 -64.5t43.5 -105.5q0 -72 -54.5 -111t-142.5 -39q-86 0 -141 42t-67 128h90q19 -104 124 -104q45 0 74 20t29 57q0 38 -28.5 61t-96.5 41q-82 22 -126.5 58t-44.5 100q0 72 50 113.5t133 41.5
q87 0 136.5 -45t58.5 -120h-90q-19 99 -112 99q-43 0 -65.5 -21.5t-22.5 -57.5q0 -37 28 -57t88 -36z" />
    <glyph glyph-name="Tcedilla" unicode="&#x162;" horiz-adv-x="612" 
d="M353 0l-22 -40q81 -11 81 -83q0 -41 -33.5 -64t-89.5 -23q-29 0 -50 9v44q21 -11 53 -11q62 0 62 44q0 53 -96 46l42 78h-20v620h-246v70h578v-70h-246v-620h-13z" />
    <glyph glyph-name="tcedilla" unicode="&#x163;" horiz-adv-x="313" 
d="M177 460v-305q0 -27 1 -41q3 -38 22 -49t70 -5v-63q-30 -5 -70 -5l-18 -32q81 -11 81 -83q0 -41 -33.5 -64t-89.5 -23q-29 0 -50 9v44q21 -11 53 -11q62 0 62 44q0 53 -96 46l41 76q-52 18 -58 87q-1 14 -1 66v309h-71v66h71v123h86v-123h99v-66h-99z" />
    <glyph glyph-name="Tcaron" unicode="&#x164;" horiz-adv-x="612" 
d="M294 736l-67 94h67l30 -55l30 55h66l-67 -94h-59zM612 620h-246v-620h-86v620h-246v70h578v-70z" />
    <glyph glyph-name="tcaron" unicode="&#x165;" horiz-adv-x="303" 
d="M337 735v-12l-60 -132h-61l52 144h69zM177 526h99v-66h-99v-305q0 -27 1 -41q3 -38 22 -49t70 -5v-63q-31 -5 -73 -5q-50 0 -75.5 22t-29.5 71q-1 14 -1 66v309h-71v66h71v123h86v-123z" />
    <glyph glyph-name="Tbar" unicode="&#x166;" horiz-adv-x="612" 
d="M366 620v-259h112v-56h-112v-305h-86v305h-112v56h112v259h-246v70h578v-70h-246z" />
    <glyph glyph-name="tbar" unicode="&#x167;" horiz-adv-x="313" 
d="M177 460v-112h83v-52h-83v-141q0 -27 1 -41q3 -38 22 -49t70 -5v-63q-31 -5 -73 -5q-50 0 -75.5 22t-29.5 71q-1 14 -1 66v145h-71v52h71v112h-71v66h71v123h86v-123h99v-66h-99z" />
    <glyph glyph-name="Umacron" unicode="&#x16a;" horiz-adv-x="682" 
d="M473 757h-240v52h240v-52zM612 690v-435q0 -42 -2 -62q-8 -92 -72.5 -149.5t-184.5 -57.5t-184.5 57.5t-72.5 149.5q-2 20 -2 62v435h86v-427q0 -43 2 -61q6 -68 50 -108t121 -40t121 40t50 108q2 18 2 61v427h86z" />
    <glyph glyph-name="umacron" unicode="&#x16b;" horiz-adv-x="592" 
d="M410 604h-240v52h240v-52zM514 530v-530h-86v90l-33 -62q-57 -42 -138 -42q-79 0 -127.5 38.5t-58.5 96.5q-5 34 -5 91v318h86v-302q0 -37 4 -73q6 -46 38 -73.5t85 -27.5q68 0 108.5 57.5t40.5 185.5v233h86z" />
    <glyph glyph-name="Uring" unicode="&#x16e;" horiz-adv-x="682" 
d="M353 874q40 0 65.5 -22t25.5 -57t-25.5 -57t-65.5 -22t-65.5 22t-25.5 57t25.5 57t65.5 22zM353 838q-18 0 -29.5 -12t-11.5 -31t11.5 -31t29.5 -12t29.5 12t11.5 31t-11.5 31t-29.5 12zM612 690v-435q0 -42 -2 -62q-8 -92 -72.5 -149.5t-184.5 -57.5t-184.5 57.5
t-72.5 149.5q-2 20 -2 62v435h86v-427q0 -43 2 -61q6 -68 50 -108t121 -40t121 40t50 108q2 18 2 61v427h86z" />
    <glyph glyph-name="uring" unicode="&#x16f;" horiz-adv-x="592" 
d="M290 565q-40 0 -65.5 23.5t-25.5 60.5t25.5 60.5t65.5 23.5t65.5 -23.5t25.5 -60.5t-25.5 -60.5t-65.5 -23.5zM290 697q-18 0 -29.5 -13t-11.5 -35t11.5 -35t29.5 -13t29.5 13t11.5 35t-11.5 35t-29.5 13zM514 530v-530h-86v90l-33 -62q-57 -42 -138 -42
q-79 0 -127.5 38.5t-58.5 96.5q-5 34 -5 91v318h86v-302q0 -37 4 -73q6 -46 38 -73.5t85 -27.5q68 0 108.5 57.5t40.5 185.5v233h86z" />
    <glyph glyph-name="Uhungarumlaut" unicode="&#x170;" horiz-adv-x="682" 
d="M305 736h-56l54 94h80zM414 736h-56l54 94h80zM612 690v-435q0 -42 -2 -62q-8 -92 -72.5 -149.5t-184.5 -57.5t-184.5 57.5t-72.5 149.5q-2 20 -2 62v435h86v-427q0 -43 2 -61q6 -68 50 -108t121 -40t121 40t50 108q2 18 2 61v427h86z" />
    <glyph glyph-name="uhungarumlaut" unicode="&#x171;" horiz-adv-x="592" 
d="M256 580h-56l61 110h80zM322 580l61 110h80l-85 -110h-56zM514 530v-530h-86v90l-33 -62q-57 -42 -138 -42q-79 0 -127.5 38.5t-58.5 96.5q-5 34 -5 91v318h86v-302q0 -37 4 -73q6 -46 38 -73.5t85 -27.5q68 0 108.5 57.5t40.5 185.5v233h86z" />
    <glyph glyph-name="Uogonek" unicode="&#x172;" horiz-adv-x="682" 
d="M612 690v-435q0 -42 -2 -62q-6 -74 -49 -126.5t-123 -71.5q-33 -12 -54.5 -43t-21.5 -71q0 -50 44 -50q30 0 56 20v-49q-37 -25 -89 -25q-93 0 -93 85q0 77 66 124q-117 2 -179.5 59t-70.5 148q-2 20 -2 62v435h86v-427q0 -43 2 -61q6 -68 50 -108t121 -40t121 40t50 108
q2 18 2 61v427h86z" />
    <glyph glyph-name="uogonek" unicode="&#x173;" horiz-adv-x="592" 
d="M514 0h-23q-39 -7 -66.5 -40t-27.5 -79q0 -50 44 -50q30 0 56 20v-49q-37 -25 -89 -25q-93 0 -93 85q0 54 32.5 92.5t80.5 56.5v79l-33 -62q-57 -42 -138 -42q-79 0 -127.5 38.5t-58.5 96.5q-5 34 -5 91v318h86v-302q0 -37 4 -73q6 -46 38 -73.5t85 -27.5
q68 0 108.5 57.5t40.5 185.5v233h86v-530z" />
    <glyph glyph-name="Wcircumflex" unicode="&#x174;" horiz-adv-x="952" 
d="M457 736h-66l67 94h59l67 -94h-67l-30 55zM945 690l-192 -690h-113l-156 595l-162 -595h-114l-182 690h98l145 -613l160 603h116l156 -604l153 614h91z" />
    <glyph glyph-name="wcircumflex" unicode="&#x175;" horiz-adv-x="785" 
d="M359 580h-63l67 110h59l67 -110h-64l-33 63zM779 530l-169 -530h-102l-118 446l-118 -446h-102l-169 530h99l123 -448l116 448h107l118 -445l123 445h92z" />
    <glyph glyph-name="Ycircumflex" unicode="&#x176;" horiz-adv-x="581" 
d="M276 736h-66l67 94h59l67 -94h-67l-30 55zM349 272v-272h-86v272l-244 418h99l192 -335l186 335h97z" />
    <glyph glyph-name="ycircumflex" unicode="&#x177;" horiz-adv-x="513" 
d="M224 580h-63l67 110h59l67 -110h-64l-33 63zM507 530l-218 -575q-33 -85 -77.5 -125t-108.5 -40q-31 0 -44 2v70q13 -1 31 -1q41 0 68 21t47 72l7 19l-211 557h97l158 -466l157 466h94z" />
    <glyph glyph-name="Ydieresis" unicode="&#x178;" horiz-adv-x="581" 
d="M236 737q-19 0 -32.5 13.5t-13.5 32.5t13.5 32.5t32.5 13.5t32.5 -13.5t13.5 -32.5t-13.5 -32.5t-32.5 -13.5zM376 737q-19 0 -32.5 13.5t-13.5 32.5t13.5 32.5t32.5 13.5t32.5 -13.5t13.5 -32.5t-13.5 -32.5t-32.5 -13.5zM349 272v-272h-86v272l-244 418h99l192 -335
l186 335h97z" />
    <glyph glyph-name="Zacute" unicode="&#x179;" horiz-adv-x="591" 
d="M329 736h-56l54 94h80zM569 70v-70h-523v66l417 554h-389v70h489v-69l-415 -551h421z" />
    <glyph glyph-name="zacute" unicode="&#x17a;" horiz-adv-x="462" 
d="M252 580h-56l61 110h80zM433 68v-68h-413v66l308 392h-286v68h386v-69l-306 -389h311z" />
    <glyph glyph-name="Zdotaccent" unicode="&#x17b;" horiz-adv-x="591" 
d="M306 737q-19 0 -32.5 13.5t-13.5 32.5t13.5 32.5t32.5 13.5t32.5 -13.5t13.5 -32.5t-13.5 -32.5t-32.5 -13.5zM569 70v-70h-523v66l417 554h-389v70h489v-69l-415 -551h421z" />
    <glyph glyph-name="zdotaccent" unicode="&#x17c;" horiz-adv-x="462" 
d="M230 594q-23 0 -39 16t-16 39t16 39t39 16t39 -16t16 -39t-16 -39t-39 -16zM433 68v-68h-413v66l308 392h-286v68h386v-69l-306 -389h311z" />
    <glyph glyph-name="Zcaron" unicode="&#x17d;" horiz-adv-x="591" 
d="M277 736l-67 94h67l30 -55l30 55h66l-67 -94h-59zM569 70v-70h-523v66l417 554h-389v70h489v-69l-415 -551h421z" />
    <glyph glyph-name="zcaron" unicode="&#x17e;" horiz-adv-x="462" 
d="M201 580l-67 110h64l33 -63l33 63h63l-67 -110h-59zM433 68v-68h-413v66l308 392h-286v68h386v-69l-306 -389h311z" />
    <glyph glyph-name="Scommaaccent" unicode="&#x218;" horiz-adv-x="585" 
d="M314 704q103 0 162 -56t69 -149h-92q-6 66 -43.5 101.5t-102.5 35.5q-58 0 -94.5 -27t-36.5 -79q0 -55 33.5 -84t114.5 -47q117 -27 172.5 -77.5t55.5 -136.5q0 -89 -67.5 -144t-169.5 -55q-114 0 -183 55t-80 155h92q15 -68 60 -105t113 -37q61 0 102 31t41 84
q0 62 -38.5 95.5t-130.5 54.5q-100 23 -153.5 67t-53.5 124q0 87 66 140.5t164 53.5zM348 -63l-60 -132h-61l52 144h69v-12z" />
    <glyph glyph-name="scommaaccent" unicode="&#x219;" horiz-adv-x="459" 
d="M228 544q87 0 136.5 -45t58.5 -120h-90q-19 99 -112 99q-43 0 -65.5 -21.5t-22.5 -57.5q0 -37 28 -57t88 -36q93 -25 136.5 -64.5t43.5 -105.5q0 -72 -54.5 -111t-142.5 -39q-86 0 -141 42t-67 128h90q19 -104 124 -104q45 0 74 20t29 57q0 38 -28.5 61t-96.5 41
q-82 22 -126.5 58t-44.5 100q0 72 50 113.5t133 41.5zM278 -51v-12l-60 -132h-61l52 144h69z" />
    <glyph glyph-name="uni021A" unicode="&#x21a;" horiz-adv-x="612" 
d="M612 690v-70h-246v-620h-86v620h-246v70h578zM298 -51h69v-12l-60 -132h-61z" />
    <glyph glyph-name="uni021B" unicode="&#x21b;" horiz-adv-x="313" 
d="M177 460v-305q0 -27 1 -41q3 -38 22 -49t70 -5v-63q-31 -5 -73 -5q-50 0 -75.5 22t-29.5 71q-1 14 -1 66v309h-71v66h71v123h86v-123h99v-66h-99zM143 -51h69v-12l-60 -132h-61z" />
    <glyph glyph-name="circumflex" unicode="&#x2c6;" horiz-adv-x="300" 
d="M183 580l-33 63l-33 -63h-63l67 110h59l67 -110h-64z" />
    <glyph glyph-name="caron" unicode="&#x2c7;" horiz-adv-x="300" 
d="M247 690l-67 -110h-59l-67 110h64l33 -63l33 63h63z" />
    <glyph glyph-name="breve" unicode="&#x2d8;" horiz-adv-x="300" 
d="M199 690h53q0 -124 -102 -124q-53 0 -77.5 30.5t-24.5 93.5h53q1 -69 49 -69t49 69z" />
    <glyph glyph-name="dotaccent" unicode="&#x2d9;" horiz-adv-x="300" 
d="M150 704q23 0 39 -16t16 -39t-16 -39t-39 -16t-39 16t-16 39t16 39t39 16z" />
    <glyph glyph-name="ring" unicode="&#x2da;" horiz-adv-x="300" 
d="M150 733q40 0 65.5 -23.5t25.5 -60.5t-25.5 -60.5t-65.5 -23.5t-65.5 23.5t-25.5 60.5t25.5 60.5t65.5 23.5zM150 697q-18 0 -29.5 -13t-11.5 -35t11.5 -35t29.5 -13t29.5 13t11.5 35t-11.5 35t-29.5 13z" />
    <glyph glyph-name="ogonek" unicode="&#x2db;" horiz-adv-x="300" 
d="M150 11l63 -11q-39 -7 -66.5 -40t-27.5 -79q0 -50 44 -50q30 0 56 20v-49q-37 -25 -89 -25q-93 0 -93 85q0 54 32.5 92.5t80.5 56.5z" />
    <glyph glyph-name="tilde" unicode="&#x2dc;" horiz-adv-x="300" 
d="M96 671q23 0 62 -13q33 -11 44 -11q16 0 16 20h38q0 -40 -13 -55.5t-39 -15.5q-23 0 -62 13q-33 11 -44 11q-16 0 -16 -20h-38q0 40 13 55.5t39 15.5z" />
    <glyph glyph-name="hungarumlaut" unicode="&#x2dd;" horiz-adv-x="300" 
d="M116 580h-56l61 110h80zM238 580h-56l61 110h80z" />
    <glyph glyph-name="uni0326" unicode="&#x326;" horiz-adv-x="0" 
d="M194 -63l-60 -132h-61l52 144h69v-12z" />
    <glyph glyph-name="Wgrave" unicode="&#x1e80;" horiz-adv-x="952" 
d="M463 736l-78 94h80l54 -94h-56zM945 690l-192 -690h-113l-156 595l-162 -595h-114l-182 690h98l145 -613l160 603h116l156 -604l153 614h91z" />
    <glyph glyph-name="wgrave" unicode="&#x1e81;" horiz-adv-x="785" 
d="M368 580l-85 110h80l61 -110h-56zM779 530l-169 -530h-102l-118 446l-118 -446h-102l-169 530h99l123 -448l116 448h107l118 -445l123 445h92z" />
    <glyph glyph-name="Wacute" unicode="&#x1e82;" horiz-adv-x="952" 
d="M510 736h-56l54 94h80zM945 690l-192 -690h-113l-156 595l-162 -595h-114l-182 690h98l145 -613l160 603h116l156 -604l153 614h91z" />
    <glyph glyph-name="wacute" unicode="&#x1e83;" horiz-adv-x="785" 
d="M414 580h-56l61 110h80zM779 530l-169 -530h-102l-118 446l-118 -446h-102l-169 530h99l123 -448l116 448h107l118 -445l123 445h92z" />
    <glyph glyph-name="Wdieresis" unicode="&#x1e84;" horiz-adv-x="952" 
d="M417 737q-19 0 -32.5 13.5t-13.5 32.5t13.5 32.5t32.5 13.5t32.5 -13.5t13.5 -32.5t-13.5 -32.5t-32.5 -13.5zM557 737q-19 0 -32.5 13.5t-13.5 32.5t13.5 32.5t32.5 13.5t32.5 -13.5t13.5 -32.5t-13.5 -32.5t-32.5 -13.5zM945 690l-192 -690h-113l-156 595l-162 -595
h-114l-182 690h98l145 -613l160 603h116l156 -604l153 614h91z" />
    <glyph glyph-name="wdieresis" unicode="&#x1e85;" horiz-adv-x="785" 
d="M319 583q-19 0 -32.5 13.5t-13.5 32.5t13.5 32.5t32.5 13.5t32.5 -13.5t13.5 -32.5t-13.5 -32.5t-32.5 -13.5zM465 583q-19 0 -32.5 13.5t-13.5 32.5t13.5 32.5t32.5 13.5t32.5 -13.5t13.5 -32.5t-13.5 -32.5t-32.5 -13.5zM779 530l-169 -530h-102l-118 446l-118 -446
h-102l-169 530h99l123 -448l116 448h107l118 -445l123 445h92z" />
    <glyph glyph-name="Ygrave" unicode="&#x1ef2;" horiz-adv-x="581" 
d="M282 736l-78 94h80l54 -94h-56zM349 272v-272h-86v272l-244 418h99l192 -335l186 335h97z" />
    <glyph glyph-name="ygrave" unicode="&#x1ef3;" horiz-adv-x="513" 
d="M233 580l-85 110h80l61 -110h-56zM507 530l-218 -575q-33 -85 -77.5 -125t-108.5 -40q-31 0 -44 2v70q13 -1 31 -1q41 0 68 21t47 72l7 19l-211 557h97l158 -466l157 466h94z" />
    <glyph glyph-name="endash" unicode="&#x2013;" horiz-adv-x="500" 
d="M430 264h-360v56h360v-56z" />
    <glyph glyph-name="emdash" unicode="&#x2014;" horiz-adv-x="1000" 
d="M930 264h-860v56h860v-56z" />
    <glyph glyph-name="quoteleft" unicode="&#x2018;" horiz-adv-x="247" 
d="M54 495l94 240h77l-78 -250h-93v10z" />
    <glyph glyph-name="quoteright" unicode="&#x2019;" horiz-adv-x="247" 
d="M193 725l-94 -240h-77l78 250h93v-10z" />
    <glyph glyph-name="quotesinglbase" unicode="&#x201a;" horiz-adv-x="220" 
d="M140 90l-90 -210h-81l78 220h93v-10z" />
    <glyph glyph-name="quotedblleft" unicode="&#x201c;" horiz-adv-x="417" 
d="M54 495l94 240h77l-78 -250h-93v10zM224 495l94 240h77l-78 -250h-93v10z" />
    <glyph glyph-name="quotedblright" unicode="&#x201d;" horiz-adv-x="417" 
d="M193 725l-94 -240h-77l78 250h93v-10zM363 725l-94 -240h-77l78 250h93v-10z" />
    <glyph glyph-name="quotedblbase" unicode="&#x201e;" horiz-adv-x="390" 
d="M140 90l-90 -210h-81l78 220h93v-10zM310 90l-90 -210h-81l78 220h93v-10z" />
    <glyph glyph-name="dagger" unicode="&#x2020;" horiz-adv-x="550" 
d="M494 374l-180 8l12 -542h-102l12 542l-180 -8v78l180 -8l-12 246h102l-12 -246l180 8v-78z" />
    <glyph glyph-name="daggerdbl" unicode="&#x2021;" horiz-adv-x="550" 
d="M314 382v-234l180 8v-78l-180 8l12 -246h-102l12 246l-180 -8v78l180 -8v234l-180 -8v78l180 -8l-12 246h102l-12 -246l180 8v-78z" />
    <glyph glyph-name="bullet" unicode="&#x2022;" horiz-adv-x="364" 
d="M182 409q44 0 74 -30t30 -74t-30 -74t-74 -30t-74 30t-30 74t30 74t74 30z" />
    <glyph glyph-name="ellipsis" unicode="&#x2026;" horiz-adv-x="620" 
d="M101 114q28 0 46 -18t18 -46t-18 -46t-46 -18t-46 18t-18 46t18 46t46 18zM301 114q28 0 46 -18t18 -46t-18 -46t-46 -18t-46 18t-18 46t18 46t46 18zM501 114q28 0 46 -18t18 -46t-18 -46t-46 -18t-46 18t-18 46t18 46t46 18z" />
    <glyph glyph-name="perthousand" unicode="&#x2030;" horiz-adv-x="1077" 
d="M337 541q0 -73 -40 -116t-108 -43t-108 43t-40 116t40 116t108 43t108 -43t40 -116zM638 690l-448 -690h-87l448 690h87zM125 541q0 -47 17.5 -73t46.5 -26t46.5 26t17.5 73q0 48 -17.5 73.5t-46.5 25.5t-46.5 -25.5t-17.5 -73.5zM551 304q68 0 108 -43t40 -116t-40 -116
t-108 -43t-108 43t-40 116t40 116t108 43zM888 304q68 0 108 -43t40 -116t-40 -116t-108 -43t-108 43t-40 116t40 116t108 43zM551 46q29 0 46.5 26t17.5 73q0 48 -17.5 73.5t-46.5 25.5t-46.5 -25.5t-17.5 -73.5q0 -47 17.5 -73t46.5 -26zM888 46q29 0 46.5 26t17.5 73
q0 48 -17.5 73.5t-46.5 25.5t-46.5 -25.5t-17.5 -73.5q0 -47 17.5 -73t46.5 -26z" />
    <glyph glyph-name="guilsinglleft" unicode="&#x2039;" horiz-adv-x="387" 
d="M330 414l-137 -166l137 -166h-73l-137 166l137 166h73z" />
    <glyph glyph-name="guilsinglright" unicode="&#x203a;" horiz-adv-x="387" 
d="M267 248l-137 -166h-73l137 166l-137 166h73z" />
    <glyph glyph-name="fraction" unicode="&#x2044;" horiz-adv-x="235" 
d="M-63 0h-87l448 690h87z" />
    <glyph glyph-name="Euro" unicode="&#x20ac;" 
d="M465 260h-268q25 -206 196 -206q84 0 147 40v-71q-65 -37 -152 -37q-129 0 -201 63t-87 211h-70l10 56h56v26q0 19 1 28h-49l10 56h43q19 139 97 208.5t200 69.5q110 0 163 -62l-42 -57q-45 51 -123 51q-173 0 -199 -210h296l-11 -56h-290v-24q0 -20 1 -30h281z" />
    <glyph glyph-name="trademark" unicode="&#x2122;" horiz-adv-x="539" 
d="M218 660v-41h-74v-163h-50v163h-74v41h198zM476 659v-203h-50l2 142l-43 -138h-52l-42 137l1 -141h-50v203h75l43 -155l43 155h73z" />
    <glyph glyph-name="partialdiff" unicode="&#x2202;" 
d="M261 758q61 0 108.5 -23t77 -60.5t48.5 -91t26.5 -110t7.5 -121.5q0 -192 -68.5 -279t-187.5 -87q-96 0 -162.5 66t-66.5 184q0 108 63 182t181 74q101 0 145 -69q-19 269 -176 269q-49 0 -81.5 -12.5t-67.5 -42.5l-38 53q81 68 191 68zM281 52q151 0 156 284
q-46 90 -146 90q-75 0 -114 -50t-39 -137q0 -91 40 -139t103 -48z" />
    <glyph glyph-name="emptyset" unicode="&#x2205;" horiz-adv-x="838" 
d="M793 688l-81 -81q90 -109 90 -252q0 -162 -111 -275.5t-272 -113.5q-145 0 -253 95l-80 -80l-41 41l81 81q-90 109 -90 252q0 162 111 275.5t272 113.5q145 0 253 -95l80 80zM98 355q0 -119 71 -209l460 460q-90 80 -210 80q-135 0 -228 -97t-93 -234zM419 24
q135 0 228 96.5t93 234.5q0 119 -71 209l-460 -460q90 -80 210 -80z" />
    <glyph glyph-name="product" unicode="&#x220f;" 
d="M549 620h-61v-730h-86v730h-224v-730h-86v730h-61v70h518v-70z" />
    <glyph glyph-name="summation" unicode="&#x2211;" 
d="M536 -40v-70h-489v68l275 343l-245 321v68h453v-70h-353l245 -320l-277 -340h391z" />
    <glyph glyph-name="minus" unicode="&#x2212;" 
d="M500 291h-420v56h420v-56z" />
    <glyph glyph-name="radical" unicode="&#x221a;" 
d="M549 780l-214 -940h-73l-126 414h-67v56h113l116 -392l189 862h62z" />
    <glyph glyph-name="infinity" unicode="&#x221e;" horiz-adv-x="986" 
d="M713 544q121 0 182 -79t61 -200t-61 -200t-182 -79q-153 0 -222 161q-38 -83 -89.5 -122t-128.5 -39q-121 0 -182 79t-61 200t61 200t182 79q153 0 222 -161q38 83 89.5 122t128.5 39zM273 52q62 0 107 52t58 161q-40 213 -165 213q-65 0 -107 -59.5t-42 -153.5
t42 -153.5t107 -59.5zM713 52q65 0 107 59.5t42 153.5t-42 153.5t-107 59.5q-62 0 -107 -52t-58 -161q40 -213 165 -213z" />
    <glyph glyph-name="integral" unicode="&#x222b;" 
d="M339 754q46 0 78 -22l-15 -54q-26 20 -60 20q-33 0 -54 -32.5t-21 -91.5q0 -46 9.5 -99t42.5 -171q55 -198 55 -279q0 -87 -37.5 -136t-96.5 -49q-46 0 -78 22l15 54q26 -20 60 -20q33 0 54 32.5t21 91.5q0 46 -9.5 99t-42.5 171q-55 198 -55 279q0 87 37.5 136t96.5 49z
" />
    <glyph glyph-name="approxequal" unicode="&#x2248;" 
d="M186 438q28 0 50 -8.5t67 -32.5q65 -35 95 -35q42 0 71 49l44 -33q-26 -40 -54 -58.5t-67 -18.5q-27 0 -49 8.5t-67 32.5q-65 35 -95 35q-42 0 -71 -49l-44 37q47 73 120 73zM186 278q28 0 50 -8.5t67 -32.5q65 -35 95 -35q42 0 71 49l44 -33q-26 -40 -54 -58.5
t-67 -18.5q-27 0 -49 8.5t-67 32.5q-65 35 -95 35q-42 0 -71 -49l-44 37q47 73 120 73z" />
    <glyph glyph-name="notequal" unicode="&#x2260;" 
d="M366 387l-85 -144h219v-56h-251l-51 -87h-66l51 87h-103v56h135l85 144h-220v56h252l51 87h66l-51 -87h102v-56h-134z" />
    <glyph glyph-name="lessequal" unicode="&#x2264;" 
d="M510 445l-358 -138l358 -134v-70l-420 171v68l420 171v-68zM90 56h420v-56h-420v56z" />
    <glyph glyph-name="greaterequal" unicode="&#x2265;" 
d="M490 342v-68l-420 -171v68l358 138l-358 134v70zM70 56h420v-56h-420v56z" />
    <glyph glyph-name="lozenge" unicode="&#x25ca;" horiz-adv-x="512" 
d="M456 345l-167 -345h-66l-167 345l167 345h66zM390 345l-134 286l-134 -286l134 -286z" />
    </font>
</defs>
</svg>
